<mxfile host="app.diagrams.net" modified="2023-09-12T02:05:12.793Z" agent="Mozilla/5.0 (Windows NT 10.0; Win64; x64) AppleWebKit/537.36 (KHTML, like Gecko) Chrome/116.0.0.0 Safari/537.36" etag="tavp7fPSiwr0gHwgSg0P" version="21.7.4" type="github">
  <diagram name="Page-1" id="53zKY_djreu8fqfbH5e9">
    <mxGraphModel dx="1434" dy="790" grid="1" gridSize="10" guides="1" tooltips="1" connect="1" arrows="1" fold="1" page="1" pageScale="1" pageWidth="850" pageHeight="1100" math="0" shadow="0">
      <root>
        <mxCell id="0" />
        <mxCell id="1" parent="0" />
        <mxCell id="cwQcEkth57no9mUlX8GR-2" value="&lt;span&gt;&lt;span class=&quot;ui-provider ek bkb bda bkc bkd bke bkf bkg bkh bki bkj bkk bkl bkm bkn bko bkp bkq bkr bks bkt bku bkv bkw bkx bky bkz bla blb blc bld ble blf blg blh&quot; dir=&quot;ltr&quot;&gt;&lt;span class=&quot;fui-Flex ___o96bqp0 f22iagw f5wk2nc f10ra9hq&quot; style=&quot;max-width: 30.1rem;&quot;&gt;&lt;img alt=&quot;image&quot; aria-label=&quot;image&quot; class=&quot;fui-Image ui-known-width-and-height ___8101qo0 fj3muxo f1akhkt f1aperda f1lxtadh fzi6hpg fyowgf4 f3fg2lr f13av6d4 f1ewtqcl f14t3ns0 fjppr6c f11ysow2 f1yrx710 f5p0z4x f151qoyn f1u6xh3z f1uq8cc6 f4wkumd f4eyv4s f8491dx f11qmguv fy77jfu&quot; src=&quot;data:image/jpeg;base64,/9j/4AAQSkZJRgABAQEAYABgAAD/2wBDAAgGBgcGBQgHBwcJCQgKDBQNDAsLDBkSEw8UHRofHh0aHBwgJC4nICIsIxwcKDcpLDAxNDQ0Hyc5PTgyPC4zNDL/2wBDAQkJCQwLDBgNDRgyIRwhMjIyMjIyMjIyMjIyMjIyMjIyMjIyMjIyMjIyMjIyMjIyMjIyMjIyMjIyMjIyMjIyMjL/wAARCACWAS0DASIAAhEBAxEB/8QAHwAAAQUBAQEBAQEAAAAAAAAAAAECAwQFBgcICQoL/8QAtRAAAgEDAwIEAwUFBAQAAAF9AQIDAAQRBRIhMUEGE1FhByJxFDKBkaEII0KxwRVS0fAkM2JyggkKFhcYGRolJicoKSo0NTY3ODk6Q0RFRkdISUpTVFVWV1hZWmNkZWZnaGlqc3R1dnd4eXqDhIWGh4iJipKTlJWWl5iZmqKjpKWmp6ipqrKztLW2t7i5usLDxMXGx8jJytLT1NXW19jZ2uHi4+Tl5ufo6erx8vP09fb3+Pn6/8QAHwEAAwEBAQEBAQEBAQAAAAAAAAECAwQFBgcICQoL/8QAtREAAgECBAQDBAcFBAQAAQJ3AAECAxEEBSExBhJBUQdhcRMiMoEIFEKRobHBCSMzUvAVYnLRChYkNOEl8RcYGRomJygpKjU2Nzg5OkNERUZHSElKU1RVVldYWVpjZGVmZ2hpanN0dXZ3eHl6goOEhYaHiImKkpOUlZaXmJmaoqOkpaanqKmqsrO0tba3uLm6wsPExcbHyMnK0tPU1dbX2Nna4uPk5ebn6Onq8vP09fb3+Pn6/9oADAMBAAIRAxEAPwD3+iiigAooooAKKKKACiiigAooooAKKKKACiiigAooooAKKKKACiiigAooooAKKKKACiiigAooooAKKKKACiiigAooooAKKKKACiiigAooooAKKKKACiue1Lx14W0iUxX2vWMUg6p5oZh+AzUNl8RfB+oSrFb+IbEyMcBXk2Z/76xQB09FNR1kRXRgysMhlOQRTqACiiigAooooAKKKKACiiigAooooAKKKKACiiigAooooAKKKKACiiigAooooAKKKKACiiigAooooAKKKKACiiigDK8Qa9beHtMN5Okkzs4igt4hl5pD91FHqf0GTXmN/c67411BtMmucADM9taylba1X/po4+aZ/wDZBC5rP8Y6kdf8W6g1/LK9hpNx9ls7KNyivKF+eRyOe+MCtX4bja+uGKCKC3aWEBIl2qGCHP8AMVFSXLG5cI3dja8P+B/D3hqALZ2Edxcfx3Vwod2PtngD2FaGoaHo+qxGO+0mxnUjHzQDI+hHIrMk0fUdY1OW6v8AUr2ytYZsWlpZy7AVX+OQ/wARb06AV0IdXyVIIyQceo4IrjlJ3vc6Ul2OM8i++Gzf2jpDXN34bDf6bp0jF2tlP/LSInnA7rXqVleW+oWUF5aSrLbzoJI5FPDKRkGuM1zQdM121CaoJWgiViNk7IFyOW+U8nHrmn/DWBtJ07UfDxmaaPTLrFu7dTDIodP5mumjPmVmYVYW1R29FFFbGQUUUUAFFFFABRRRQAUUUUAFFFFABRRRQAUUUUAFFFFABRRRQAUUUUAFFFFABRRRQAUUUUAFFFFABXnnxJ8bT6OI9B0WQDV7pNzzdfssX9//AHj2/Ou6v72HTdOub64bbDbxNK59lGTXzal5capcXWs3hJu9SkMzZ/gT+BB7AYrKtU9nG/U78uwn1qtyy+Fav+vMi0jTbw6atzJqltZW93dSCze8jeRrlwcEsw4QEjqa9B+F935+l6nG8LRTR3f71SOjbQCM98FTWF4V8SaJp+l/2P4ilEAszMbdpFJSaKTqP94cjFeo2cyXFlBPHE8UcqB1SRNrAHpkdjWM5txsRKm4VGno10FuXuY7WV7OOKS5VSYklYqrN2BI6Csjw/HrQudQn1a2trWKeQPFbQy+ZtbHznOBw3Bx659a3MZ6Vj6j4itbEkQvDczRShJ7YTKsqqepAYjJHFZK+w3bcyY7nU7CSfwzDNbRXTFn0+e8jLxz25PzJwR865xj0xXN2/iS/wDh743eO6nN7pv2a2hv2CYYfKQsij/ZHGO4rX1vVYdZuNNgvFhsIkuo57dTKst3OwPCxohO0HoST0zXIa3dpqviXWLvG6KS4MK57qgC/wAwavncFzG2EwyxNT2b7P8Ar7z6LgmiuYI54XWSKRQ6OpyGBGQRUleY/BvW3l0u98O3EhaTTHDQFjyYH5H5HI/KvTq7E01dHnThKEnCW6CiiimSFFcJ44tfiCskt94U1exjto4cmzmt1LswySQxB6+nFeCH47ePgcHUrcEf9Okf+FAH1tRXnPw+/wCFhalHp+s+IdasG024h837HHbKJCGX5SWAGOoPevRqACiiigAooooAKKKKACs+XXtHtyRNq1jGRwQ9wgx+ZrQr52+O3w/0HQNJtdd0i1+yTTXXlTorEq+4Fs4PQ5B6etAHvFnr+jajdfZbHVrG6nClvLguFdsDvgGtGvlb9nv/AJKWf+vGX+a19U0AFNkkSKNpJHVI1GWZjgAepNOry/48Wms3fw+26UsrwpcK14kIJZosHqB1UHGf/rUAehafrOl6qZBp2o2l2Y/v+RMr7frg1er5D+C9prM3xJ02bS0mEMTE3kig7BFj5gx6c9h64r68oAKKKKACiiigAooooAKKKKAOG+Lt41r8Or6NCQ11JFbZHozjP6ZryAgL8q/dUbR9BXq/xmjZvADSKMiG8gkb6Bsf1rx2+vo7NVyrySSHEcaDJY1x4pOUopH0WSThTp1JzdrW/Udf263VjNCxUZU4Y/wn1r2LwvrK+JPCNlfRy4maLyZmXkpKowf8a8PeB7gb9Ul2r1W1jPA/3j3q7oet3Hh7VGlsLi5trGX/AF9vAFbJHRgrcZ/L61rDBzVPXc8/MM0oYisvZrRaX7ntel6k07yWF4Fj1KBcSx9pF6CRPVT+h4rmta8K6hcz+Wmm6Jq9kOIhqCss8K/3d4+8B2zzXEaxr+o+JLtpoNXliitHAtZFtFhkBwCScEkc8cHBxTP+Ey8SRW01rf6xetJHGXV7RIgWXpyxGV/AE1ilaVk9QeGq+zVTl917M6jXbzT/AALoHmDT9Mt/EMsRgtltAzmGP+9luQBk/U1xtmsaWcSwvvj28PnO71NZktnLZr/aUl5Lc3cjL5rSEkOpOCDnk9aLPFtqaRWxIgnDM8J6IR3HtTnTU6TnF7bnZgqksHilRrR1mlY7j4d3LWfxOsgDhb20lhceu3DD+Ve918++B4zN8T9EVf8AllHPI302Y/rX0FW2H/ho4c1SWLnby/JBRRRWx55Dd/8AHlP/ANc2/lXwTN/r5P8AeP8AOvva7/48p/8Arm38q+CZv9fJ/vH+dAH3B4L/AORI0L/rwh/9AFXdY1nTtA02TUNVvIrW1j+9JIcc+g7k+wql4L/5EjQv+vCH/wBAFfNPxv8AFtzr/jm40xZWGn6W3kxRg8GT+Nz754+goA9htPjNHrt1cReF/Cur6wluMySoFjUD8c/l1pmh/Hnw1qOpf2fqdtd6Pcb/ACyboAordMMRyvPqKxPg54v8H+GPh/DbX+tWdrfTTSSzo5O7OcDPH90CvHviheaZqPxF1a+0e5juLO4dZFkj+6WKLu/8ezQB9ea7r1roGiSatcRXFxbx7SRax+a5BIAIA6jmvNp/2ifCUZIjs9UkI7eUq/zar/wH1q41f4cRw3MhkewuHtlYnJ2ABlH4BsfQCvB/jBawWnxS1qO3iWNC6OVUYGWRST+JJNAH0Ovxg8Mx+DbbxJeNNbRXTOkFqwDTSFWwcAHGPfOK5KP9pLQmuQkmh6gkBODIHQsB67f/AK9S/Azwdoc/guDXbuyju7+aSRA9wocRKrEAIDwPUnrzXA/H/QNO0XxjZz6dbR2wvbXzJY4lCqXDEZAHTIxQB9KaHrmn+I9Ht9V0u4We0nXKsOCD3BHYg9RXmH7Rn/Ig2X/YQT/0B6zv2bLqV9C1y0ZiYormN0UngFlIP/oIrR/aM/5EGy/7CCf+gPQB5t+z3/yUtv8Arwl/mte8+MviHZeCZoxqGl6pNbugY3VvBuiU5xtLEgA+3vXgn7P8iRfEeSWR1SNNPmZmY4CgFcknsK7jXPHGn/FHxlD4Hs9TNloLsfPuVHz3zryI0zwq5HBPXH0yAdBp/wAdtA1a7W10/R9bupmIASG2Dnn2DVqeKPi94e8J6rNpupWup+dGQNy23yPkA/KxIz1rqtB8OaR4Z05LHR7GK1hUc7B8zn1ZupP1rl/jLaW9z8LdYaaFHaFEkjLDlGDryPSgDH8PfG7w1rfiGy0XT9LvopL2URrI0aKoPqcHNdn4u8Z6b4LsobvU4L2SGUkbraDzAuP7xzwOa+Ufhb/yU/w9/wBfa/yNfZssUc0TxSorxupVlYZDA9QRQB5DN+0Z4VTPlafqkv8A2zQfzaui8S/F/wAM+GLC0luXmmvLqBJ0soADIisARv5wvWvkvVokg1m+hiULHHcSKqjsAxAFfXXgPwN4e03wlp8v9mwXNzd2sctxcXUYkkkLKDjJ7DOABQByel/tGeHbu+SC+0y9soXOPPJWQL7kDnH0zXsME8VzbxzwSLJDKodHU5DKRkEV8ZfE7RrTQfiLrGn2EQitUlDxxr0QMobA9gTX0d8EryW8+Fel+cxYwtJEpP8AdDnAoA2fGPxC8P8AgeFDq1yxuJBmK1hG6Rx647D3NczY/F2/1Ox/tGx8Ba9caeRkTxqp3D1A7/ga8D+LE13N8UNe+2Fy6XJSMN2jAGzHttx+deu+Avjp4di0HT9J1uKXT57WFIPORN8ThRgHjkcDnigDp9B+M2heJPE2maHp9nei4u/MEvnqE8hkUtgjnOcEcV6RXmQ8K6P4k+IOi+O/C1/YSJCz/bxE/wDrcqQrYHR+ec4zxXptAGL4u0b/AISDwlqmlD79xAwj/wB8cr+oFfM1zJJLpNvehStxaODIp6gjhga+s68I+JvhY+Htbn1iCLOj6o2LjaOIJz3PorfzrKqnpKO6O7A1Ypyo1PhmrfPozhrrBuC6/dcBx+IqH+IKOSc4/CiJi+n2jE5IQoT/ALpxUcd1Gt8sZWQttYDahbJI7Yr0G1ueJyu9uxPb3UltMY0geYzsoRUxnf0x+PFdhpmgwW+sWp8RQW11Ddq0CB93l20xGU3Y+8G6E+uMVy0Whazfopt9D1aXB3K0ds6kH1BOK0bgeOLXSpbe+0HUp7XbkTTW5WSIjkNuHoRnmuZ0qXM59WegsXiXRjQv7q6FnxNoumafDffZbm52i7CWiGQlSAqk5Dc4GT79Kw9LTfdXE/ZQIl/mf6VFNqmseI9QknexuLm7kV59kScY6swHpXU+FfAWs6ra2K3OoW2mQXcfnRqima4kU879o4Ue5NZ143p8kOu50ZfXjTxPtq7b5dup0vwf0w3niPVtdZcw20YsoWx1Ync5H04H417LXCfDuJvDz6h4MuPKabTWE8M6LtNxDJkh2H94HIP4V3dEY8sUjGvVdWpKo+oV8o/EP4peKZ/G2pQWGrXVhZ2Vw8EMNu+wfISCWx1JIJ5r6ur5/wDiZ8Hb+bxXJ4j0WzOo2VzKJrywjkCSg5+bYe4b25BPSqMj0P4b+JtQ8S/C9NV1cg3KpLG8u3b5gTI3f4/Q18fud8rFRncxxX0P4j8WeKr7wsfC3hb4f6tpcLw/Z2aSI/u48YKrgY5GeSe9U/ht8Cr231S31jxWscccDCSKwVg5dhyC5HAA9BnPegD2zwtbSWfhPR7aZSskVlEjg9iEGRXyB8SrCXTfiRr0EykE3byrkdVf5gfyNfateafFL4UweO4kv7GWO11mBNiu4+SZeytjpjsaAM34HWuh6z8OYVn02wuLq1nkimaS3Rm5O4ZJGehH5V6T/wAI1oP/AEBNN/8AASP/AAr5o0Hw/wDFT4b6vLLpejXTh/llSOPz4ZgOmdp/Xg816Hb6t8YvGEP2FdKtPDsDjbLeyIySKO+0MxOfoPxFAHrGlHSFS4h0gWSrDKUmS1CgJIOoYL0P1r5O+NP/ACVbWfrH/wCi1r6S0bw0vw+8GzW+gWEmqX4PmyB5FSS6lJGWLHgf/Wrwjxb8OviL4t8T3utz+GhA9ywPlJdREIAAAM7ueBQB678Cf+SU6f8A9dpv/Rhrzf8AaT/5GbRf+vNv/QzXd/CCy8ZeGtPj8O654dW30+MySR3ouUJUk52lQTnknmuK+JvhX4geP9dgu18KfZYLWMwxD7ZExcbidx+YflQBp/s0/wDIP8Qf9dYf5NWx+0Z/yINl/wBhBP8A0B6wPhboPxD8A31xDL4VFxY30kfnMbuJWiwSNw+Y54J49q1Pi3pnjrxqn9i6f4W26dbXRkS6N3GTPgEAhSRtHJ60AeR/CvwxH4v8VzaRNe3NpFLZSl2t2wWxjCn1XJBI74rnta0jUvCPiSfT7rdBfWUoKupx05V1PoeCDXpvgTwR8RvA3iZNZg8LLdYiaJ4nu4l3K2Oh3cHgV33xb+Hd7430PT9Y06wEevwoqy2xkXLIeShbOCVJ4P1oA6T4W+PIvHPhdJZmUapaARXkY7ns4Ho388infF7/AJJXr3/XFf8A0Na8W8GeB/ij4I1+PVdO0HcduyaB7mLZKh6qfm/EHsa9B8b3fxC8VeE5tFt/A/2Y3aKJ5Wv4n2YbOFGR1wOfegDw74W/8lP8Pf8AX2v8jX2hXyfoPwv+I/h7X7HV7Xw8Gns5llRXuItrY7H5u9e/XHiHxinha3vIfBu/WJJGSSyN9HtiAzh93cH0HNAHyDrf/If1L/r6l/8AQjX214W/5FDRf+vCD/0WtfLN18HviFd3c1zJoB3zSNI2LiLGScn+KvoHwZqHjC18ISW2s+GBFe6dbJHapHdIfte1cAdSEPA6nHNAHzz8aP8Akq2s/WP/ANFrXu/wH/5JXY/9d5v/AEM15J4v+HXxE8W+Kb3W5fDP2drlgREt1E20AAAZ3c9K9K+Edp428L2cHh3WfDSx6aJJJBei6QmPPOCoJzz6etADdZ8LeFfjVDdahYyz6fq1hM1pLKUBYlegdc8j0OQev0ryjxN8DvFvh63mu4Eg1O0iBZntWO8KO5Q8/lmut0Pwd8SPCvibV/Emh2MbxSXsqvYTShTcxbiwYDp34Oc13N18S/EZsZIrf4da8NSKEKrx5iDeu4dR+FAHzp4B8Sah4Y8YafeWMrqHnSKeIH5ZULAFSO/Xj0NfbNfO/wANfglqy67ba54piS1gt5BNHZ7gzyODkbscKoPOOtfRFABUF5Z22o2U1neQJPbzKUkjcZDA1PRQB8o3ltDp97fadDwlpezRIpOSqhuP0rX8F3rWnjfQ3Z/l+1CPnoN4K/1r17xT8KvD/iSeW+jWTT9SkO5rq2P329WU8H9K8x1j4a+KfC0Mmr/aLK9tLArctJGWWTajBj8pHXA9a1VRctmYum+bmR9D1V1IbtNuV9YyKltp0urWG4jOUlRXUjuCMii5XdbSL6isjY+Z/BWqxaN460S5vZ1jtozLbu8hwqqVI5/GvRPDvirQjo+m6bLdhLy1MirG1u7FkDnae3GMc1k+GPCuj2/jDw3ezwNL9s+1nbK5ZROjEqQO2FzxXsN/o2maqqrqGn2t0EGFE0Svge2RTk7u4orlVjkNKuodb+Ks9/p8iyQWeli2uZIzlTIz7lTI7gAn2rvar2VhZ6bbi3sbWC2hByI4Ywi/kKsUhhRRRQAUUUUAFFFFABRRRQAUUUUAFFFFABRRRQAUUUUAFFFFABRRRQAUUUUAFFFFABRRRQAUUUUAFFFFABUN3bR3lnNazDdFNG0bj1BGDU1FAHmWheNf+EQ0uDQPEOk6yktgDbpdx2jSxTIpIRgV5+7itGb4seHWiIt4NVuXI4SPT5c/qK7yigDzX4feGHupB4h1QanG8V1O2nWd021YYn/i2dmOT1NelUUUAFFFFABRRRQAUUUUAFFFFABRRRQAUUUUAFFFFABRRRQAUUUUAFFFFABRRRQAUUUUAFFFFABRRRQAUUUUAFFFFABRRRQAUUUUAFFFFABRRRQAUUUUAFFFFABRRRQAUUUUAFFFFABRRRQAUUUUAFFFFABRRRQAUUUUAFFFFABRRRQAUUUUAFFFFABRRRQAUUUUAFFFFABRRRQAUUUUAFFFFABRRRQAUUUUAFFFFABRRRQAUUUUAFFFFABRRRQAUUUUAFFFFABRRRQAUUUUAFFFFABRRRQB/9k=&quot;&gt;&lt;/span&gt;&lt;/span&gt;&lt;/span&gt;" style="text;whiteSpace=wrap;html=1;" vertex="1" parent="1">
          <mxGeometry x="350" y="70" width="300" height="160" as="geometry" />
        </mxCell>
        <mxCell id="cwQcEkth57no9mUlX8GR-3" value="&#xa;&lt;span&gt;&lt;span dir=&quot;ltr&quot; class=&quot;ui-provider ek bkb bda bkc bkd bke bkf bkg bkh bki bkj bkk bkl bkm bkn bko bkp bkq bkr bks bkt bku bkv bkw bkx bky bkz bla blb blc bld ble blf blg blh&quot;&gt;&lt;span style=&quot;max-width: 16rem;&quot; class=&quot;fui-Flex ___o96bqp0 f22iagw f5wk2nc f10ra9hq&quot;&gt;&lt;img src=&quot;data:image/jpeg;base64,/9j/4AAQSkZJRgABAQEAYABgAAD/2wBDAAgGBgcGBQgHBwcJCQgKDBQNDAsLDBkSEw8UHRofHh0aHBwgJC4nICIsIxwcKDcpLDAxNDQ0Hyc5PTgyPC4zNDL/2wBDAQkJCQwLDBgNDRgyIRwhMjIyMjIyMjIyMjIyMjIyMjIyMjIyMjIyMjIyMjIyMjIyMjIyMjIyMjIyMjIyMjIyMjL/wAARCACgAKADASIAAhEBAxEB/8QAHwAAAQUBAQEBAQEAAAAAAAAAAAECAwQFBgcICQoL/8QAtRAAAgEDAwIEAwUFBAQAAAF9AQIDAAQRBRIhMUEGE1FhByJxFDKBkaEII0KxwRVS0fAkM2JyggkKFhcYGRolJicoKSo0NTY3ODk6Q0RFRkdISUpTVFVWV1hZWmNkZWZnaGlqc3R1dnd4eXqDhIWGh4iJipKTlJWWl5iZmqKjpKWmp6ipqrKztLW2t7i5usLDxMXGx8jJytLT1NXW19jZ2uHi4+Tl5ufo6erx8vP09fb3+Pn6/8QAHwEAAwEBAQEBAQEBAQAAAAAAAAECAwQFBgcICQoL/8QAtREAAgECBAQDBAcFBAQAAQJ3AAECAxEEBSExBhJBUQdhcRMiMoEIFEKRobHBCSMzUvAVYnLRChYkNOEl8RcYGRomJygpKjU2Nzg5OkNERUZHSElKU1RVVldYWVpjZGVmZ2hpanN0dXZ3eHl6goOEhYaHiImKkpOUlZaXmJmaoqOkpaanqKmqsrO0tba3uLm6wsPExcbHyMnK0tPU1dbX2Nna4uPk5ebn6Onq8vP09fb3+Pn6/9oADAMBAAIRAxEAPwD3+iiigAooooAKKKRmCqWYgKBkk9qAFrJ1TxHp2lEpLKZJh/yyi5YfXsK5fxD4wedntNNYpF0acdW/3fQe9chuycmvUw+XOS5qunkefXxqi+WmdbeeO72RiLSCKFOxb52/w/SsqTxNrMrEtfyDPZQF/kKx80Zr04YajDaKOCWIqS3kaf8Ab2rf9BG5/wC/hqzB4s1mA/8AH35g9JEB/wDr1h5ozVOhTe8V9wlVmtmzutP8eKzBNQttmf8AlpDyPyP+NdZaXttfQ+bazpKnqp6fX0rxnNWrHUbrTbkT2spjcdfRh6Ed64q2XQkr09H+B1UsdOOk9Uex0VieHvEUOtwlWAiukHzx56j1Ht/KtuvGqU5U5cslqepCcZx5o7BRRRUFBRRRQAUUUUAFFFQXV7bWUfmXVxHCvq7AZppNuyE2krsnrhPGmvlnOlWr4Vf9ewPU/wB3/GtbUPG2lW8EgtZmnnCnYFQ7d3bJOOK8zkkaWRpHYs7ksxPcmvVwGElzc9RWtsedjMSuXkg9x2aM1HmjNezY8u5JmjNR5ozRYLkmaM1HmjNFguSZozUeaM0WC5ZtrqazuUuLeQpKhyrCvW9G1SPV9Mjuo8Bj8si/3WHUV43mun8D6mbTWvsrN+6uhtx6MOQf5j8a4Mfh1Up8y3R14OvyT5Xsz0yiiivnz2wooooAKbJIkMTSSuqRqMszHAApWYKpZiAoGST2ryzxZ4nbV7k2tq5FjGcDHHmn1Pt6V04bDSrzstupz4jERoxu9zU1zx47l7fSRsTobhhyf90dvqf0rjJrma5lMs8ryyHqzsST+dV80Zr6Kjh6dFWgjwqtedV3kyTNGajzRmtrGVyTNGajzRmiwXJM1qaLotzrVzsi+SFT+8lI4X/E+1O0Dw/ca1PuOY7VD88uOvsPf+Vem2lpBY2yW9tGI4kHAH8/rXnYzGql7kPi/I78JhHV96W35nK6r4KhFnv01n89ByjtnzP8DXEOGjdkdSrKcFSMEGvaK5zxJ4ZTVUNzahUvFH0Eg9D7+9cmEx7T5Kr07nTisEmuaktex5xmjNJLHJBK0UqMkiHDKwwQaZmvb3PIJM1NaXJtbyC4U8xSK4/A5qrmjNDV1ZgpWdz3vqMiivI7TxnrdoFUXQlReiyoD+vX9a6zSPH1leOsN/H9kkPAkzlD/h/nmvnauX1qauldeR7tPHUpu23qdhRSKyuoZWDKRkEHINLXCdhyXj3WTYaStlE2JrvIJHZB1/POPzry3NdD48vWufFM8ZPyW6rGv5ZP6k1zO6vp8DRVOgu71PnMbWc6z8tCXNGai3Ubq7LHLclzRmot1G6iwXJc10XhvwzNrEguJ90dkp5bvJ7D/GubjkVJUZ0DqrAlScbh6V2UfxDaKNY49KiRFGFVZcAD8q5cV7fltRWr69jow3sea9V6HfQQRWsCQQRrHEgwqqOBUlcB/wALHlzzpif9/j/hXeQyCaCOUDAdQ2PTIr56vh6tHWotz3qOIpVdKb2H0UVy/iPxcdCv47VLMTFoxIWMm3qSMdPas6VKdWXLBXZdWrClHmm9Cz4j8NRazEZodsd6o+V+z+zf415jcQS2lw8E8bRyocMrdRXW/wDCx5f+gan/AH+P+FYev+Il10xO1jHBLHwZFfJYenSvdwUMTS9yovd9VoeNjJ4ep78Hr6bmTmjNRbqN1elY8+5LmjNRbqN1FgudZ4W8WTaNMlrcsXsGbkHkxZ7j29RXqyOkkayRsGRhlWByCPWvn3dXpfw61o3NpLpUrZaAb4if7hPI/An9a8fMsIuX20Pmerl+KfN7KXyOH8UFh4p1IOeftDflnj9KyN1dP8RLJrTxQ8+MJdRrID2yBtP8s/jXJ7vevUw0lKjFrsjy8QnGrJPuS7qN1Rbvejd71vYxuS7qN1Rbvejd70WC5Luo3VFu96N3vRYLku6vc7H/AJB9t/1yX+Qrwfd717xYf8g61/65J/IV4ucfDD5nr5S/el8ixXmHxDOPEUX/AF7L/wChNXp9eW/EU48Rxf8AXsv/AKE1cmV/7x8mdeZ/wPmjlt1G6ot3vRu96+lsfO3Jd1G6ot3vRu96LBcl3Ubqi3e9G73osFyXdW74NvGtfFdiVOBI/lMPUMMfzxXO7vetfwtGZ/FWmIO1wr/98nP9KyrpOlJPszWhJqrG3dHpvjvQG1rQzJAubq1zJGAOWH8S/wBfqK8W3V9JV5T498GNZSSaxpsZNs53TxKP9WT/ABD/AGf5fTp5GV4tR/cz+X+R6mZ4Ry/fQ+f+Zwe6jdUW6jdXvWPBuS7qN1VprhIE3PnGccCqjaqv8MZP1OKlyjHc6qOEr1lenG6NTdRurFbU5j91UX8M1C15cP1lYfTiodWJ3QybES+JpG+WwMmvZk8V6BYafbrc6vZqyxKCglDMOB2GTXzuBLMeA8h9smiWGWEgSxuhIyAwxXDi6UcTZPSx6uCy76tduV7n0rp/iLSdUiWS0vY3Vvu7vlJ/PFee/Eg48Sxf9eq/+hNWNoP/ACBLX/dP8zV2eCO6x5y7yowCTyB6VOGwUaFX2kWa43Byr0uSD1Ob3Ubq1JdHU8xSFfZhmqMun3UXJj3D1TmvTUkz5utgMTS+KOnlqQ7qN1REkHB4NG6qscVyXdRuqLdRuosK5Luru/hjpZuNYm1J0Pl2ybUP+23/ANbP5iuL0zTrrV9QisrOMvNIePQDuT6AV7zoOjw6Fo8FhCQ2wZd8Y3ueprzMzxCp0vZrd/kenlmHdSr7R7L8zSoIBGCMg0UV80fSHn/if4awX8jXejNHbTnloG4jb6Y+6f0+leZapo+paLP5WoWkkDZ4LD5W+jDg/hX0bTJYo5ozHLGsiN1VxkH8K9PDZpVpLln7y/E8zEZXSqvmh7r/AAPlvUDmBf8Ae/pU2l6PFe23nSSuvzEbVxXo/wAW9A0rTdCtbyysYbed7sIxiG0EbGOMDjqB2rivD/8AyDP+BmvVp144hc8UejluHdCj7OWu4j6HZQ28jbHZlQkFm9vas3w9Gkl5JvRWwmRuGcciujuf+PWb/cb+Vc/4b/4/Jf8Arn/UVZ3tK6OkACjAAA9BXOeJP+PqH/c/rXSVzfiT/j6h/wBz+tNjlsdHoP8AyBLX/dP8zWjWdoP/ACBLX/dP8zWjVrYzCiiimMjlgimGJI1b6is280mFIJJYmZNiltpORxWtViwt4rzUbW1nTfDNMkci5IypIBGRz0o5+VXOXEYSlWi+aKv3OF3V0Gg+DtY8QFXgg8q1J5uJvlXHt3b8K9jsPCegaa2610u3Vx0ZxvYfQtkitmvLrZxdWpR+b/yPCo5PZ3qy+7/MxfDvhiw8N2nl2q753H72dx8z/wCA9q2qKK8Wc5TlzSd2e1CEYR5YqyCiiipKCiiigDzf40f8irY/9fy/+gPXnHh//kGf8DNej/Gj/kVbH/r+X/0B6848P/8AIM/4Ga97L/4KOmiaFz/x6zf7jfyrn/Df/H5L/wBc/wCoroLn/j1m/wBxv5Vz/hv/AI/Jf+uf9RXa9zV7o6Wub8Sf8fUP+5/Wukrm/En/AB9Q/wC5/WmwlsdHoP8AyBLX/dP8zWjWdoP/ACBLX/dP8zWjVrYzCiiimMKu6P8A8hzT/wDr5j/9CFUqu6P/AMhzT/8Ar5j/APQhUVPgfoJ7HrtFFFfJHKFFFFABRRRQAUUUUAeb/Gj/AJFWx/6/l/8AQHrzjw//AMgz/gZr0f40f8irY/8AX8v/AKA9eceH/wDkGf8AAzXvZf8AwUdNE0Ln/j1m/wBxv5Vz/hv/AI/Jf+uf9RXQXP8Ax6zf7jfyrn/Df/H5L/1z/qK7XuavdHS1zfiT/j6h/wBz+tdJXN+JP+PqH/c/rTYS2Oj0H/kCWv8Aun+ZrRrO0H/kCWv+6f5mtGrWxmFFFFMYVd0f/kOaf/18x/8AoQqlWroFhd3OrWc0NvI8Uc6M7hflADAnms6rSg2xPY9Vooor5M5QooooAKKKKACiiigDhfiro2oa14Zt4tOtXuZIroSMkfLbdrDIHfkivDprfVNJfZPDd2bZ+7IjR/oa+q6a6JIhSRVZT1VhkGu3D410Y8trouM7HyuNZvvLZGlDqwwdyik0y/GnztIYy4ZduAcYr6MvvBPhnUsm50W03Hq0SeWT+K4NczffBzQLjLWlzeWjHoN4dR+BGf1rujmNJ/FdFqqeZx+IrRvvpKn4AisvW7uC8nieB9wCYPBGOa7q++C2qRZNhqlrcD0lVoj+m4VzN98OvFVhuL6RLMo/ityJM/gpz+ldMcVSntJF+0ujW0H/AJAlr/un+ZrRq34Y8Ja1PpVtHJZva4B3faQUI5PY8/pXa2Hgeyhw15K9w390fKv+P606mMo01q7vyE5pHBwwTXEgjgieRz0VFJNdDYeCtRucNcslqh7H5m/If4139taW9nH5dtBHEnoi4zU1edVzSb0pqxm6j6GFYeEtKssM0RuJB/FNyPy6VuKqqoVQAo4AA4FLRXnTqzqO83chtvcKKKKgQUUUUAf/2Q==&quot; class=&quot;fui-Image ui-known-width-and-height ___8101qo0 fj3muxo f1akhkt f1aperda f1lxtadh fzi6hpg fyowgf4 f3fg2lr f13av6d4 f1ewtqcl f14t3ns0 fjppr6c f11ysow2 f1yrx710 f5p0z4x f151qoyn f1u6xh3z f1uq8cc6 f4wkumd f4eyv4s f8491dx f11qmguv fy77jfu&quot; aria-label=&quot;image&quot; alt=&quot;image&quot;&gt;&lt;/span&gt;&lt;/span&gt;&lt;/span&gt;&#xa;&#xa;" style="text;whiteSpace=wrap;html=1;" vertex="1" parent="1">
          <mxGeometry x="50" y="310" width="300" height="160" as="geometry" />
        </mxCell>
        <mxCell id="cwQcEkth57no9mUlX8GR-5" value="" style="shape=image;verticalLabelPosition=bottom;labelBackgroundColor=default;verticalAlign=top;aspect=fixed;imageAspect=0;image=data:image/png,iVBORw0KGgoAAAANSUhEUgAAAXAAAAA4CAYAAADkZaOKAAAgAElEQVR4nO2de1hU1frHvzPMDAwMdwYEREBREy9JkYkdshKVFDEsu5xTeCGPT1oqqelPSTxlp/RkRicVSzHzHBPQPKAoKSclQzMviJcjCKIgooCADMPcZ+/fH8Q8DHttmIEZQdif5+F5mLX3Xmvt27vf9a73fRePpmkaHBwcHByPHPzu7oAlyT73P1TUPOjubnBwcHA8FHqVAM+91Yg5mSWofiDv7q5wcHBwWJ1eJcAldgIUiQZg7n+KUFUv6+7ucHBwcFiVXiXAeQAoZQMK9B6Ym1GMe7UN3d0lDg4ODqvRqwQ4AICmQSlluKRzw9zMYlRyQpyDg6OX0vsEOPCHEG/EZb075mZeR8V9bmKTg4Oj9yHo7g5YDZoGpWjEVXsPzMkoxs7pQ9Dfw7m7e8XBwWEFSkpKsGXLFohEIjg6OsLPzw8eHh6YMmUK7t27h/379+PNN9+Es3PvkgG9UwM30KyJF9IemP2f67h937rmFIqioNfrjf66Stv6KIqyQE+7Dk3TjL6R+kfaR6/Xo6eGH9y5cwcXLlzA6dOncenSJVRUVJh8zUn33xLPwKPIw74WAoEA1dXV2LBhA2xtbZGTk4NFixYBALKysrB06VI0NTVZrf3uoldp4AI+j1n4hzml0F6KOZkl2DV9MHzdnazS/l//+lccP37cqCwkJARpaWng8837ViqVSkRFReHWrVtG5dHR0di0aVOX+9pVCgsLMXPmTCiVSqPy999/HwsXLgQAqNVqxMTEoKioiHF8UlISoqKiHkpfO0ImkyElJQVpaWm4ceMGmpqaoNPpIBKJIBaL4e3tjUmTJuHtt9/GkCFDWOtJTEzEnj17jMokEgmOHz8ONzc3a59Gj2LevHk4ceKEUdmgQYOQmZkJOzs7i7cXEBCA1atX49q1a1i2bBk2bNiA3bt3Iz8/HwcOHICDgwMEgl4l7gB0swCXKxSorW8wW7iR4INGvUJD3kjToJtkKLJ3w+yMEqREBcDP0/IvVFlZGUpLS43KSktLkZ+fjyeffNKsunJzc/Hzzz8zyisqKrrUR0uhUqlw9epVRnl1dbXhf5qmUVJSwrgmANDQ0DMml48dO4aVK1fiwoULjG1qtRqNjY2orq5GQUEBdu7cidWrV2Px4sXg8ZjKQmVlJeNchUIhdDqd1frfUyG9CxRFWXXkJZPJoNPpoNVqodPp4OTkhDVr1uDGjRvw9/fvlfehWwX4oQs38NlFBXi0HujijeWDRiMtAs1Xs9T1hyYudsWcQ7ewfSoQ4GVZIW5ra0ssT09PN1uA79u3j1guEonM7pc14PP5sLe3h0KhMCoXCoVGv9m0LRsbG6v1zVT27NmDOXPmQKNh+fC34f79+4iPj0dFRQU+//xzxnbSvRGLxURh353U1NQQP6rDhg2DkxN5dFpVVcUYDQJAcHAwHB0dGeWkd8EamjcbSqUSzz//PC5fvowRI0ZArVZzAtzSyLQ0au29Qes0XRbgAAC9FtBp0OwRTuAPF8MisRvmHLyJHVHAwH7WH9pmZGTgww8/hIODg0n719TU4ODBg1buVd/m999/x/z5800W3q3ZuHEjxowZg1dffdUKPbM+Bw4cwPz58xnlR48excSJE4nH7N27F0uWLGGU5+bm4tlnn7V4HzsDTdPQarUAAI1GAzc3NyQkJEAgECA5ObnHzrt0hW6dxBTweaDVCsv96bRgFd4t0ACllKEEbphzsBSl9+qsfp6FhYXIzc01ef9Dhw4ZmSIeZdgmALvzZdJqtVi6dCnkcvaUC/b29u3WsXbt2h5jBjIXNpNle6bMzhzzsBEIBHBxcTH8pmkac+bMwVNPPQWRSNQjRn2Wpudc/YcJTYNSyFDKc8esgzdRWmV9P/G0tDST9qNpGvv377dybx4ePVGAZ2Vl4ddffyVumzx5Mvbv349Tp04hPT0dYWFhxP2uXbuG3377zZrdtBqdMen0NDMQieHDh+Pf//43hEIh4uLisHTpUgDAwIEDsXPnTvTr16+be2h5et+0rBlQChlu2rtjzqGbSIkKwCAvV6u1deTIEVRWVsLHx6fd/YqLi4mTl48iQqEQmzZtQm1trZH2Q1EUnnnmmW7rV3Z2NrF8xowZSE9PN2iVjz/+OCIiIjB16lScOnWKsf+pU6cwefJkq/aVw3TEYjECAwMBwMhbSCQSISAgoLu6ZVX6tAAHAFrRgFJ7V8w+eBM7XtRhiK/UKu1UV1cjOzsbc+fObXe/H3/8keGa96hiY2PT4wScSqXCuXPnGOVCoRDx8fEMk4CLiwsWLVpEFOCXL1+2Wj85OEyhb5pQ2kApGnALrphzuAIF5TVWayc1NbVd04FGo8GBAwes1j4HIJfLUVlZySj38vJCcHAw8ZgnnniCaD+9c+eOSW32xskzjp5Bt2rgPcmuRikbcdu1P745VYqv/Tys0re8vDxcvXoVI0aMIG4/f/48zp8/3+V27ty5g9LSUty6dQv379+Hra0t/Pz84O/vjxEjRpg88aRWq3H27FkUFhZCJpPB09MTTz31FIYOHWp1d8aqqipcvnwZN2/eRGNjI5ydnTFw4EA89thj8Pb27nS9KpWKOPkoFotZw6zt7OyIUYSVlZWgabrdZ4WmacOEaEFBAfLz81FXVwdXV1cMGTIEoaGhrO6nSqUSd+/eNWpDr9fD09OT0Ve9Xo/y8nJQFGW0r5ubG9zd3RnnSqI9Lyk2F0BTPavM5fr16ygrK0N5eTlkMhkkEgkCAgIwYMAADB061CptPop0qwDvMZoJjwe+gzMeV5fg/14MttqHpampCRkZGawCPDU1tUvhxnV1dVi/fj1++OEH3L59m7Gdz+cjPDwc8fHxmD59ert1HT16FGvXrsXp06eNyl1cXLB06VJMmzYNtra2DD/wtpw5cwYFBQWGKDiKomBra4uXXnqJ6D8sl8vx9ddf49tvvyX6KgcEBGDChAlYtGgRRo0a1W7bJPR6PdEfmMfjsd53Dw8PpKWlQaVSGZWbklfDzs4O9+/fR0JCAr755huGeSwsLAxr1qxBZGQk49hz585hxowZ0Ov1hr7pdDp8+umnWLBggdG+NTU1GD9+PORyudG+CxYswKeffoqKigocPXoUfD6f1SNq//79KCoqglarhUQiwZAhQwxmorYRxi2kpaXh0qVL0Gq1sLOzQ3R0NKsvuSlcvnwZf//735GVlYXGxkbGdolEgsjISKxZswYjR47sdDu9hYciwFUqFR403EU/r8CH0Zx58PjgOzhhrE0VtkQPg9TVuslu9u3bh2XLljG0LplMhqysrE7XW1xcjNdeew35+fms+1AUhdzcXJw8eRJ/+9vfkJCQwNrHWbNmEYXzgwcP8OGHH+LIkSMm5QjZvXs3Nm/ebFQmFAoRFhbGEOA///wzli1b1u453Lp1Czt27EBmZia+/fbbDj9EbREKhRAIBAz/b5VKZdD02yIWizFz5kyz2mlBo9HgjTfeYPVYOX36NGJiYrBt2zbExsYabVOr1bh//z7jGFJOD71ej3v37hn8oFuQyZoXNikoKEBcXFy7fW0dnOTu7o558+bhs88+a/eY1tvt7Ozw1FNPdVqA//TTT5g9ezbu3bvHuo9cLse+fftw8uRJJCcn46WXXupUW72Fh2IDz7++BtWNhx5GU+bB44Nv74Rxwmpsmz4EUleXjo/pIleuXEFeXh6j/Pjx4ygpKelUnUqlEnFxce0KvtZQFIUPP/wQO3fuZGy7desW3nnnnQ4161OnTpnkB03KPyESiRja7vnz5/HKK6+YfA41NTWIjY0lhsC3h0gkMvIVbl3fjRs3zKrLFBoaGjp0N1SpVHj33XcZk6J8Pp9o7iLZ43k8HtGs1XL9zR1VCoVC2NjYMCJr24N0X02luLgYb775ZrvCuzVVVVV46623zL7/vQ2rCnCapnHmyjpIBx2HyLZnhIAb4PHBt3fGs+L72DZtMNwIL7U10Ol0xDD5vXv3drrO7du34+TJk2Yft27dOoYQ3r59O1Hr6yykF7qtUNJoNHjvvfdQX19vVt0ymQwJCQlmmZ1aUo22RalUYv369d2W7bGxsRFff/211eo397xaQs/bavQdHdOZ60fTNNauXWv2cyeXy/Hpp5/2HFNsN2A1EwpFUfj9yicQuR+AWsWHDd2DoqBaCe8tUYPh3AWbnVG1LMKq7ZA9MzMTn3zyCVxdm/3OKyoqkJOTY3Sci4sLVCoVw+7aFoVCgZSUFOK2cePGITIyErW1tdi9ezfq6oyjTktLS5GTk4OXX34ZQLMgPXz4MLEuqVSK2NhYeHp6IisrC7/88ku7/TKHzMxMhq0daNYe4+LiMGrUKFy8eBHff/891Gq10T7Z2dk4e/Ysxo4da1Jbtra2GDFiBM6cOcPY1hJstWDBAowbN84s7bMjwsLCMHbsWDQ1NSE9PZ34scrLy4NOp7NK1jxHR0cEBQWBx+OhoaGBGOnr4+MDiUQCvV4PLy8v9OvXD8HBwdDpdKirqyMKWF9fXzg4OECv18PJyalT+U5KSkpYg9defvllPPnkk7h27Rr27NnD+FgfPnwY5eXl8Pf3N7vd3oBVBDhFUThz5WOI3DOgUlKwEfBAEt9aPQWenQTQsSWgMhO9DrRW3f4+PD74Ds541rYaydHD4Cixzix6C05OThgzZgyOHj1qKLtz5w6ys7PxxhtvAGgO8mn9ctjZ2SEyMhJZWVkdCvCioiJcunSJUR4ZGYmMjAzDsDoqKgrTp09nmEZOnjxpEOA3b97EzZs3ieeQnp6O8ePHAwAWLlyIqVOnmpUeoD3YbP+JiYlGdvoRI0ZgyZIlRhoXTdP46aefTBbgQPO12bFjB3FbWloa0tLSEBoairfeegszZsxA//79Ta6bxPTp05GammqY93j11VcRExPDmKSrra1FZWUlBgwY0KX2SISFhSEvLw98Ph//+te/EB8fz9jnq6++wvjx46HX62FjYwOxWIy//OUv4PF4+Pbbb7Fq1SrGMVu3bkVYWBj0ej34fH6n0ubm5OQwPswAsHz5cmzYsMHwe+TIkVi5cqWRlq9QKHDixAnMmjXL7HZ7AxY3oVAUhd8ur4XILQNqFQWdll0wD3J3wLOie3jBoQ4TJPVd+ouQ1MGf1wCeTTvfpD8mLMeLqpA83frCG2jOuxEZGQmp1DhAqHVo/Q8//GC0LSAgABERER3aoYHmWfu2w1Y+n481a9YY2UQjIiIwbdo0xvEXL140aDWVlZV48ICZVmDmzJkG4Q00u4699957FvHW0el0uHLlCqPc3d0d77zzjlHZW2+9RRSm165dM6vNadOmsYbIt3Du3DksXrwY48aNw+LFizvt3ikUCpGQkGA0aT1hwgTivVAoFGabkUxFJBLB09MTHh4erEK2ZbuXlxc8PDzg4OAAqVQKDw8Pw2ixLS37enl5QSqVdirfSEFBAaPMx8cHH3zwgVHZkiVLEBQUxNj34sWLZrfZW7CoBq7X6/H71UTYeRyGSvmH8G7nHY94PAgRj1uu/fVZ5/HPCiFAEdLT/mE2eUFcg6+jrCO8SbY4pVKJ0aNHIzQ0FEeOHDGU5+TkoKamBvX19YxJrkmTJmHAgAEm2XYLCwsZZb6+vhg0aBCjfMyYMUhNTTUqKy4uhkKhgKOjI2pqyEFMY8aMYZQFBgbC1ta2wxFCR1AUhdDQUIhEIoPJQqvVYtSoUQz/ZVdXV3h5eTFcJOvr6zv0x26Nra0tUlJSEBMTQ7x+rbl9+za++uorbN26FS+++CLef/99o49ZR7QO724NyZdZo9F0+XqaAptdu73MjGypWDuTzbEtpFHfkCFD4OHhYVQmFAoRHByM69evG5WT3E37ChYT4BqNBmevfQixxzEolRT0uvaFtzWg2JT9P8wmEfb38c+ooZBIJA+vTxQFR0dHREdHGwlwuVyOzMxMKJVKhm/w1KlTWYM72lJeXs4o8/LyIvpYtx0FAM1eEjU1NXB0dGTYyFsg5W8RCAQWye4mEomwdetWk/cntSmXy6HVas0KLnrsscdw+PBhvPvuu6x2/9ZotVpkZmYa/ONXrFhhclukDzvp/rYsQ9aXkMvlqKqqYpSz5Qwild+9exdKpZI1QKk3YxETikqlwu//SzAW3gysL82J8pvf7Co4SVKLf0YNeajCuwW9Xo+JEycyJni2bt2KLVu2GJX169cP4eHhJq/fR5pYsre3Jz7MpBSpWq0WtbW1AMCaXpXkdkfTdLfM/luyzcDAQGRlZSEzMxOvvvqqSc+GSqXCypUrzfrokPrclz0nWiOXy4lmO7YgKdI9evDgQa/JH2QuXRbgKpUKZ6+thr00h1V483gA6G5Iu8Ljgy92QqRjPb6e9li3CG+g2bY5aNAgPPHEE0bl58+fZ9hvIyIiIBaLTXbfIgl6Nk2UdP5ardYQ7ME2fLdWuHRnsEZO52nTpiE1NRW///47EhISTArVTkxMJI5+OMxDpVIRn2G2fOwkZUIulxMnQfsCXTKhKJVKnC1cBYlnLpQKCno9WatQNOlRJzuA6roL4PG66mdLg+bpMMT3bfTzYNpmDfwRpDPFqR5fRQ8z2SRhDVqGxdHR0cSsdq1pmdwyRUOjKIpogywsLER8fDx4PJ6hHoFAgOLiYsa+NE0bJktJdfH5/G5Zxu3ixYsoKyvDnTt3oNFoDEEtpARSlkp9MGzYMHz88ceIj4/HoUOHkJKSwuppU1NTg/T0dEPOaY7OodPpiIrDf//7XyxbtszIpGRjY0N0/1Qqlb1yuTRT6LQAV6mUOFe4Eo5eJ6FoYhfeAKBW0bBzKodAyMzPYS48HmBvbwO9nplRzgCfD76dBFMca/FV9PBuFd6tmTx5MtauXcuq6Xp7e+O5554zuT6KooiBExUVFfjyyy9NrqdFe2EThA9r1RW9Xo/t27dj9+7duHjxoslmJEvj5uaG2NhYvPnmm9i6dStWrFhB7MuRI0c4Ad5FKIoiCt+LFy+a7F2i0Wg4AW4OKpUK54pWQmKC8Aaaha5GTUOj7rrdj8cDaApwtmfpOs8GfLETpjrWIqkHCW+g2Y85JCSEGLQCAM899xw8PT3NqtMS2meLuYbNPPEw7LUqlQqzZs0yeeWihwGfz8fChQshl8uxcuVKxvaSkhI0NDSYlNSKg52uKgharbbPTf62YPaVUygUOFe0AvYepgnvh4meBvhiR0Q51+PLad1rNiEhEAgwZcoU1u3mJuaxlOmgJaCErT5rC3CKojB//vxOC29r9+/1118nzh+weVBwmE57WSBNRavVmhXy35swSwNvampEfvEqOHjmQdGkR0/76CnUGjwvvI2kaSO7xW5rClOnTsXHH3/MsDd7e3ubvbo328MfEBCAuLg4k18Mc6IYrUFqaiq+//574raYmBg8+eSTht/btm1j+IFbO6+8VCrFoEGDGAEnCoXikV3YuCdBun9jx45FVFSUyXWYO3LtLZgswJuaZDhfvAISzzM9UngDwMzHfTHE263HCm+geeHV0NBQxmRmeHi42YuutuRZacugQYNYU8V2VF9baJq2aoInvV5PDGsXCoVISkpiRGMeOXKEmOvcmohEImIkolarfSiBN70ZgUBAfIbDw8OxevXqbujRo4VJArxJUYdz1/8PTl5n0SSn0E0J2zrkicGWzyFhaUQiESIjIxkCfMaMGZ2ury0qlapTSZHYkjeRvFMsMfQFmu3IpHSrkZGRDOENsEcEmsr169eJngzBwcFGmn5rBAIB0a9ep9NZJBKxLyMUCommTtJiDhxMTHrDz137CJ4Dz6O2Rt9jhfejRHR0NNasWWP47ebmZrb5pAWSbValUkGj0ZgtwEkvEk3TVg2SuHLlCtHDg22uoKtBMdnZ2Vi8eDGjfN68efjmm29Y2yR9OGxsbKySObC76MwH2ZxjSPva2trC0dGRMZfQXR5IjxomPX2+0kkoK/8NLu56yBsp9KClLB9JgoODERsbi6KiIgDAs88+2+l1Hkm2vwcPHqCpqYkRDHHz5k2cPn2aYSoZP348vL29WQN2SHZeS9md2SaffH19ieVdbZctkVN7Hym1Wk1MMmVra9stQU6ka9BVQQqw34vOHEPaX61WMzydJBIJ0TzFlpfn3LlzKC4uNtRP0zTEYjEmTZrEGvzTmzFJgAcNmAJAjPLaVXD2UKOpsQcawB8hhEIhdu3aZZG6SHmQ7969i7q6Okbuk3379jEyvAHNKWW9vb1ZhVtFRQWjTKVSWWTmny1/BSmsX6vVEsvNEV6kfDAAiCl5W6itrWUkUAKahU/bhEuWhM1MRRoN6HQ6k81LbB+d/Px8TJ482axjCgoKiLELpPtaVVWFO3fuGCX3EovF8PLyYuxbWVkJrVbLMOutXbuWkX7Y29sbly5d6pMC3GQ3wqABzyPAdQNktfaQOPagxRn6OMOHD2eUKRQKop23dU7yFlpW+waaF+8lCYxff/2VUZafn28R+y8pNBoAcYWh8+fPdznzXFBQENFUdPXqVdb8Jps2bTKkG2iNl5dXl3OFt4etrS3RN5+UfvfKlSuscxVtYZss37Ztm2FU2Ba2EeLmzZuJ94Q0gmpqajJad7MFUubMkpISxnnW1dURg3uCgoL6rC++WX7gAweEI8DlMzRwQrzHMHz4cKK2s2bNGsOqORRFITk5mbiyeHBwsOHl9PHxIWrh+/fvx86dO6FWq6HVanH69Gnii9gZ+vfvT9Sc9u7da/TBKS0txfLly7tsj/fz80NwcDCjXK/XY8GCBViyZAl++eUXXL16FYcOHcKcOXOwceNGYl1PP/20VW3gLi4uxGtz4MABHDx40PC7rKwMiYmJJs8FDB48mCiQb926hUmTJiEhIQF79uwxyk45dOhQRnpfoDkd8cSJE5GYmIi9e/caElONHj2a2PaWLVvw0ksv4csvvzRMXpPSFSsUCixcuNCQ7repqQmrVq0iplIYOXKkRVdPepQw++kLHPAn8PgbcLN2BZw9miCXceaU7iQoKAhPP/00Tpw4YVReVlaGiIgI/OlPf4JGoyEupAw0515p0fL8/f0RGBhoyE7YglKpxNy5c/GPf/wDQqEQhYWFFvO+8PX1xahRoxieKPX19YiJicHEiRMhEonw66+/4u7du11uTyQSISYmhnXx5KSkJGzevBl2dnas2Rlb6OxK9aYSEBAAV1dXRra+xsZGvPLKK4iIiICjoyPy8vKIZi42fHx8MGXKFKL7Znl5OT755BMAwLFjxxAREWHoy6RJkxiLjwDNH9ePPvoIAPDLL78gPDwcEydOhLu7O+NZAoCMjAxkZGRg8uTJyM7OxvPPPw9XV1fGPMPp06cxduxYhIWFoaKigjjyAEBcHKOv0KkY1oD+4zDQfT3qq+0hcepYE6dpQCjiwd6BD7F91//sHfhAl5Ni9Q4EAgEWLVpE3KbVanH8+HFW4e3r64u5c+cafguFwnajQa9du4ZLly5Z1HXOzs6O9QVUKBTIyMhAenp6u8Lb3EjM+fPnG8xGJHQ6XYfC+/XXX8fEiRPNatdc7O3tWXPjtKxfmpqaapbwbuH999/v0Gbc1v9/+fLl7UY38/l8w73w9fXFu+++a1JfvL29MX/+fOK2hoYGZGdnswrviIgIw0emL9LpJAT+vuMQ5PEP1FXbw9HJhiUZdzMCAQ+KRjFq77qjrsqla3/3XFBV4QS9tu8lb2cjJiYG8+bNM/u4zz//nJEgPy4ujriCTFt4PJ7FUhXMmzcPAwcONGlf0ory5nqmeHp6YseOHZ2egAwJCcHGjRutHgEKAEuXLmWdJ2iLOR4xwcHBSElJYU2xzOfzGecXEhKC5ORk1olnGxsbo2NWrVqF2NhY1j609oZasWIFQkNDTe4/0OxRlJSU1KtcOc2lS2fu3z8MFL0RN2tWwFUqQyOLOcXB0QZi/Svw8Xqjy+lkaQAUpYerE9mboDthy0ncmUQ7bMewab9JSUng8/nYtm2bSfWvX78er7/+OqO8X79+2LVrF/785z+zanZCoRDr16/H5s2bcePGDaNtbT1TSP1VKBRGWrNUKjUscdbempDx8fFwcXFBYmKiUXlnoiFfeOEFHD16FO+99x7rCKUtAoEAM2bMQFJSEnEikHSuSqWSOEIgefBoNBqG1jt8+HDs2rULsbGx7YbtJyYm4sSJE4z0t+2Nll577TUEBgZi3bp1yM7ONuoT2+pAs2fPxuDBg7Fu3TocO3bMaJ+2SaVEIhG+++47jBs3Dl988QXDk6f1++Li4oIff/wRc+fORU5ODmufW+//3XffEecz+hJd/nQF+j0N0OvbFeI8HiCRuKNfP/IySb0Ff39/oibZmYUknJyciHWxeT2IxWIkJyfjxRdfRHJyMi5cuIDa2lqjF8rZ2RmhoaGIj4/H1KlTWdsODw/Hzz//jI8++gg//fSTwSfX0dERISEhWLVqFSZPnoysrCyGcGrrl+7t7c04D4lEwoggHT9+PHJycrB27Vrk5eUZJtBsbGzg5+eHuLg4rF69GikpKYz6Bg4c2CltOCQkBMeOHUNqair27duHq1evor6+Ho2NjaAoCkKhEM7OzvD398eECRMQFRWF8PBw1vp8fHyI50rSEKVSKWNfoVBINGtER0fj+PHjWLduHXJzcw12ZYlEglGjRuGDDz7A9OnTMXv2bEaagY7iC8aMGYPMzEzk5eXhxIkTuHz5MsrKyiCTyVif22eeeQZHjhxBbm4ucnNzceXKFZSVlUGhUDBGATweD/Pnz8fMmTNx9OhRnDlzBoWFhSgvL2eYsfz8/JCRkYHt27fj+++/x40bNxj2f6lUioiICCxfvhwhISHtnltfgEdbKJVbadlZlDV8ABdpAxobjIW4s6sAtup38NiAty3RVI+FoiiitkUajnYEWw4SHo9nUvrN27dvo7i4GA0NDYaozGHDhpmtsZSXl+N///sflEolgoKCMGLECMO5kDS0tv1juybtraxz48YNFBYWoqmpCVKpFKCIicIAAAEiSURBVKNHjzYEe3SmPlNpampCeXk5KisrIZPJ4OHhAT8/P/j7+5t0/8zpW2efldLSUhQVFUGtViMwMBAjR440XG9T7oepUBRldroEc45pebbZ+kbTNIqKilBWVmZY89TBwQGjR48mmtH6KhYT4ABQXnkBpfc/gIu0DrJWQryvCHAODg6Oh4lFl1oZ4PMEgqRfoPaeG5xcOD9xDg4ODmti8bWy+nuPwlCvTaivcueEOAcHB4cVscpih/19RiJIugn11VI4uQjadTHk4ODg4OgcVlut1s9nBILcv0DDfS84u3KaOAcHB4elsepy436+wzHI7XPcuSUBTXP5fTk4ODgsidVDmPr7BEN3+zOoNPet3RQHBwdHn8KiboQcHBwcHA+P/wfVrY+/BCX6TAAAAABJRU5ErkJggg==;" vertex="1" parent="1">
          <mxGeometry x="340" y="400" width="368" height="56" as="geometry" />
        </mxCell>
        <mxCell id="cwQcEkth57no9mUlX8GR-7" value="" style="shape=image;verticalLabelPosition=bottom;labelBackgroundColor=default;verticalAlign=top;aspect=fixed;imageAspect=0;image=data:image/png,iVBORw0KGgoAAAANSUhEUgAAAKQAAADGCAYAAABciSsQAAAPOElEQVR4nO2dz2vb5h/H366/MRXZPEy9hbguKSFufjShYBgEmY2OntwdttOuu8nH5LLbjrvtYh+TP6GnXWpDYcx0xATCwkK8JKtM2hDjzMVD4MV4OHj6HvxLP23HPx9JnxcYIsnPL+nl55E+kp64ZFmWQRCM8L9pV8CKlMtlFAoF3NzcoFwu499//21v8/l8mJmZgdfrxfz8PDwezxRraj1c1EP2R7lcRi6XQ6FQQLlc7jtdIBDA/fv3sbi4CLfbPcYa2gMSsgfVahXZbBaiKA6VD8dxWF9fRygUGlHN7AkJ2YXj42P8+eefqNVqI8tzdnYWm5ubmJubG1medoKENKBWq2F/fx/5fN70O4FAAPfu3WufM7aoVCr4559/cHl52XVoD4fDWFlZGWm97QAJqaFSqeD169eQJEm3zefzYW1tDcFgsK/zwUqlgnfv3uH09NSwlw2FQvj0009HUm+7QEIqqNVqePXqla5n4zgO4XAYCwsLA+d7enqKP/74Q7eNpFRDQipIp9MoFAqqdT6fD0+fPgXHcUPnXywW8euvv+p6Sxq+O5CQTQ4PD3F2dqZat7CwgM3NzZGGa8rlMn755RdUKhXV+mfPntGFDoA7064AC0iSpJNxbm5u5DICgNfrxRdffKELmB8eHo60HKtCQqIR3lEyOzuLzz77bGyBbK/XC57nVeskSep6Ve8UHC9koVDQibC5uTn2W36BQEB33qj9YTgRxwv55s0b1XIwGJzYudzq6qpKfEmScHFxMZGyWcXRQtbrdRSLRdW6jY2NiZXPcRyWl5dV666uriZWPos4WsirqyvU6/X2stfrhc/nm2gd5ufnVctOP490tJDag//gwYOJ18Hv96tinLVaDaVSaeL1YAVHC6mNBX788cdTqccnn3yiWr7N4212w9FCXl9fq5Y/+uijqdTD6/WqlrU/FCfhaCGVT3oDjfjjNNCWq62Xk3CskLVaTXVBM4p71YNy9+5d1bKyXk7DsUJqA9/VanVKNXF2j6jFsUIC+qFyWlJqzxmnderAAo4WUjtMT+tiQttDaodwJ+FoIbU90bTukmifwaQe0qFo75JMQ0hJklQ9s9vtdvRzkY4WMhgMqpZLpdLEh23t3aL5+XlHv7/taCE9Ho+uN5rkI2D1eh25XE61TvsjcRqOFhKA7mmb8/NzwzcOx4Eoiqore47jBn6RzC44XshgMKh7wmd/f3/swWlJkpDNZlXrVldXHT1cAyQkgMYT4kokScLe3t7YyqtWq3j9+rXq7UOfz0fTrICEBNCQQTtU5vN5HBwcjLysWq2GdDqtu3h68uSJ43tHgIRss7m5qRu6RVHU9WTDIEkSUqmU7hz18ePHCAQCIynD6tB72QoqlQpevXqlu4Xo8/kQDoeHig+enZ0hm83q5A4Gg/j8888HztdukJAaJElCOp02vK8dDAaxsbHR92sO9Xod+Xwev//+u2F8MxAIjPV1WytCQhpQrVaRTqdNwz8cxyEYDGJ+fr49Wy7HcZAkCbVaDZVKBfl8XvfOjpKVlRWEw+FxNsOSkJAm1Ot1HB4eDj1RqRaPx4NwOIzFxcWR5msXSMgeSJKEo6Mj3QMQt8XtdmNlZUX3LjahhoTsk0KhgLdv3yKfz98qaD47O4uHDx/i0aNHU30q3SqQkANQKBTw999/Q5Ik3Nzc4Pr6GpVKBX6/H263G7Ozs/jwww/x4MED3QtcRHccJ2SpVLLUOys+n89RQ7yt/09NK+xydXWFfD4/0snrJ03rqj4YDNp66LdtDymKIrLZ7FRf3hoHHo8Hy8vLWF5etmXPaTshi8Ui9vf3bf+yvV3/742thDw/P8fBwYHpOaLb7W5feNy7d2/Ctbsd79+/B9CYVqVbL2+3SfNtI+Tx8bHh096th17v379v2XdVyuUyLi8vkcvlbH8L0hZCXlxcGD6/uLGxYbtzLbOHNOzSU1peyGKxiHQ6rRqm3W43IpGIbd9PMftPDnb49yKWfx7y8PBQJ+OzZ89sKyPQmC0tGo3q3t8+OjqyfFTB0kLm83ndEzmbm5vw+/1TqtHk8Hg8un8vUq/XcXp6OsVaDY+lhfztt99UyysrK456a8/r9ereB9K+yWg1LCtksVjUzfiwuro6xRpNB+1bk0bvelsJywr5119/qZYXFhZsfUutG3b6Tw6WFfLy8lK1rJ2nx0lo214qlSx7396yQmpDHna+qu4Fx3G6CzmrTpxvSSGNpmO2w12KYbDLPOWWFFLbOzp5gs8WH3zwgWqZhuwJot3Zdro1OCh37ljyUOqwRysI20BCEkxBQhJMQUISTEFCEkxBQhJMQUISTEFCEkxBQhJMQUISTEFCEkxBQhJMQUISTEFCEkxBQhJMQUISTEFCEkxh6xl0W9TrdVxcXKhefbhz5w4ePnyoexeFFS4uLvD27dv2u0MzMzMIBoNYWFiw9ftDjhAynU6jWCzq1h8dHeGrr75iTsqzszMcHh7q1ufzeVSrVTx+/HgKtZoMth+yq9WqoYwt3r17N8Ha9Id2EoR+t9kB2wv533//DbV9Gljpv0SMGtsLSVgLEpJgChKSYAoSkmAKEpJgChKSYAoSkmAKEpJgChKSYAoSkmAKEpJgChKSYAoSkmAKEpJgChKSYAoSkmAKEpJgChKSYAoSkmAKEpJgChKSYAoSkmAKEpJgChKSYAoSkmAKW8ztI0kSfv75Z8NtdpsFwqyt19fXU6jN6LGFkLVarev8PXbC7m215JDt9XptPSXdKLh79+60qzAQlhSS4ziEQqGB0vn9/jHUaLwsLi7e6vt+vx9zc3Njqs14seyQHQ6Hsbq6inK53Heaubk5HB8fo1QqjbFmo2djYwNPnjzpq60cx8Hr9U6gVuPBskICjZ3Pcdy0qzERnNJWSwvJAqIo4uTkBJVKBYFAAOvr65Y8LWAFEnIIDg4OIIpie7lQKKBYLOLp06eWPYebNpa8qGGBarWqkrFFvV7H0dHRFGpkD0jIAbm4uDDdViqVUKvVJlgb+0BCDsjNzc1Q2wljSEiCKUhIgilISIIpSEiCKUhIgilISIIpSEiCKUhIgilISIIpSEiCKUhIgilISIIpSEiCKUhIgilISIIpSEiCKUhIgilISIIpSEiCKUhIgilISIIpSEiCKUhIgilISIIpSEiCKUhIgikcP/vZ+fk53r9/f+t0vSaZ39vbG3jaaUmSBkpnBxwvZKVSQaVSGXm+VpullxUcN2T7fL6x5Ds7OzuWfN1uN2ZmZsaSN4s4TshgMIhAIDDSPAOBACKRyMildLvdWFtbg8fjGWm+LOOSZVmediUIooXjekiCbUhIgilISIIpSEiCKUhIgilISIIpSEiCKUhIgilISIIpSEiCKUhIgilsJmQOiYgLLpcLsZSdyhq+zFSskc41ucoOxOiEzKWQiEUQcTUb7nLBFYkglkghlxtZKYTNGckDurlUDKHnu/oNmQx2M8+x+yIOcW8LS6MojLA1w/eQuQS+bcnIx5EUZchy4yOKScQF3jhdKtbsRROgDpRoMXQPmXv5AhkAgIDk3haiim1LS1Fs7USxNWwhhGMYuocUTxo6gl9DaNjMCMcztJChteaQnDmB2Mf3c4lIY6huDfOZbYQUF0KRhHIAzyGViCESiXQulFwuRCIRxFK3HehTiEW6XWnmkEvFEIkoLspcEURiCfRXVA6pWESVNpZIdT0dyaUSiI2kbeo6KC8sI7HudVCm7b/9rav9CBI5ALlEZ9+21g2KPCxiXOYBGYAMXpCTYo+vJwWZ5/lOGqCx3PwIydY3k7Kg+A6a26FMF9cWJspxvrGtk08zL15RR32t2umMy+JlXVHKsuJxVXtUH0Ffmq48ow8fl/W70qx9BvtL9RE67e+nPj3b3/o+L8fjgq48wyL6ZHghZVkW4xpRhHhPMeWk0GXHy03ReVmIJ3XbO+WZ7SjlTlHsbEMZZTkpdCRIavJTblPXQysVLwvtxKKcFHjTA9TOs5lGVOSZVO5L3ZE1E1JZF16OK+sRF9Q/FgNbbt9+bdsVHZEoGh/PPhmJkLLc7Pk0v5SuYvYSsiud3sDswDTWK2XsJr5ZL9hfWaoDYrBd1ZMrRhSznuR2P7g+8lSOYtovDNR+zQ9gGAM1jCwwvhTdwZ4sIhkX0Ar0ZHa38Tw0zDmRGSGsmUSTlKRiIWxnAPDmcdB2lED4HluGgdIovhYaf2XfGLdDSO4gqku7hEfrjb8yJ52z63Z5fBzfRbVpmim//Ka5DzM46ePEvGeeS1v4XuiRdsD2C8k9k3SDMeKZK5YQ3dpBdOs7pBI/4oftXWSQwe7zb7EmDlrxHFKJl/jp5AWy2c7aTKZ7qt3nLjQumxrhKLOi21GC3eeIZI0tb5XVEKv/RjQu+NQVbZe3/sg8p6Uv8Q2/jUymKYHe9tvn2SvtGNo/CGOaSqUp5pdriIS2kUEG2z+msLVj0iWYkEtEENruYZ4JQjyO7PY2MtjF89jXkPsoO9PDcn5t2MBWDm+yvb81Lcbf/t6M9+EK5VCRfXO7OzKpWFtGXkhCVNwBkmUR8V5D9qMt7CWbhe8+7/0wgpBU5G/82Rt6bOoM48wxkfb3htmnfVI/NeOUQhJ7O1EsDbIvojvoOGkcH2vHUW/7gxmWbuXlXuJFexTu3fBh2jC19pswZiFTaHllen7TI6BuPEyIOOmzBtGdVm+awXYoBm1HudS+8niBlxM4ItHWFUJmGz+a9NrK27Ff93GW02mDSZ6pGH4wePZFnXYy7e/JcBfpjZBAI7yjiT+JimC0UWhAFapobhRFWWz92Q59aEIqqnx7hX3U9USveKJJYF9MxmVBF8PsFqTWtEEdo1GFTAR141Txy/4D/2ZhGE1cs0dss//29277oIxESHT98CaVNr5b0TkIBndqFHm27iT0J6TciXsaHmi15K38eW3w16T+txNSVscFTT58jzsqRu0zzZMX5GSr/Yb53rb9zAopy7KYlONxQXdbDzwv80Ky3eOZplWm4wV1Tyom5bhgfBeodbD7FlLuFnBupE3GBc1BaNzWFOJG7RhCSNPyeJnnBTlputN6lCkmZUFzy699p6urkLdt//iEpOn4CKZg9iqbcCYkJMEUJCTBFCQkwRQkJMEUJCTBFCQkwRQkJMEUJCTBFCQkwRQkJMEUJCTBFCQkwRQkJMEUJCTBFCQkwRQkJMEUJCTBFCQkwRQkJMEUJCTBFP8HTQKA7gICm3IAAAAASUVORK5CYII=;" vertex="1" parent="1">
          <mxGeometry x="420" y="580" width="164" height="198" as="geometry" />
        </mxCell>
        <mxCell id="cwQcEkth57no9mUlX8GR-8" value="" style="shape=image;verticalLabelPosition=bottom;labelBackgroundColor=default;verticalAlign=top;aspect=fixed;imageAspect=0;image=data:image/png,iVBORw0KGgoAAAANSUhEUgAAAPIAAADxCAYAAADx/OoKAAAgAElEQVR4nO2de3Qb133nPzMDgk+RIkVJBElTb9MP2bQky0pYOVXtOHXiVNG6VbM9qdqm7WlXW7Wr023ds+ttso+oTdSejZqq0fYkTZs4mzZl4qpKN/FWjuuuYiSyRDqyZUW0XiZCChJFiRT4BjBz94/BY/AiARIAKej34RliMHPn3juD+c7vd3/3zoymlFIIgnBH4wIwTZO+vj6uXLmy0PURBCFLmpqaWLt2LZWVlWhKKdXT08P58+cXul6CIORIc3MzO3bsQAe4cOHCQtdHEIQ5cPXqVQBbyKZpLmhlBEGYH650Cx966KEZN8olPpZt2rnG3DJtl7w8m/xn22amPJzrMs3PNX269flIN1O52dYv2zKzLTfX8nOtfyay+a1zPUdnSz9XbWialrIsrZDr6uryUoFc0mYrkmzXzeWHyeX7XE78XObnsn6mZfnIYz755rJ+vvO5rJtPmtmWF4p05elFrYGwYGiattBVEJLI9jfJJp0IWRCyZCEvhrOVLUK+i8nHiTlbHuIJ5I+ZjmXBhSw/ZPEo1LHONd/F/psvpvrl69jeERZ5MR34bHDWN5v52fIQFjeZfqti/oZ3hJCLhYinOMegEGXMlGc25SWnKea5kI+y7hohpztY8zmAd8oPne/9vtspVDNjvr/JohHyXHekkCdlLnkXWxz5Lu9OEXexhHGnsWiELNxZzMXS57JNNvGExSTW+br2uaRLhwhZWDQstubKQlxANE2bU/4i5BxYDBZgoeuw0OXPRL4DXsUufz7pRciLgEKcQMUY7JFt+Qsl/sV80cmGXKyzCHmRUezg3UIFj/IViS90z0Ou7nU+rbJzO+eUDhFyiXEnWqH5BLyKVZd85VGo/RAhCzGiJ1m+XOpst8ll/VzqNN+88x30KoSY5yTkO/GqX2wW0zDNu3lQSD67xHLJv9hDcEvWIt+pQw1zKWuxB5EK6RrPNe9iWtFsxJyv41KyQk5HNmKYz5jbUrRyhQyG5RpsmmtdFsoqZ5tPPs6btI/6uTU8MuuGCY9Sif1LmMmZnB+ZEilY5bBtxse1oGJVz/7ZXLFKzJ6/ski3Kl16y7JmLTtSaSyVmjYxnUKpPDzjS6mEPc2ULtvnnKXbx1zSzpQeIsclw+pszxXLUuRyPs/nkT+zPe/Mia5pJGs/rZBv3hrOrRKxfwkzOZNOGNkUPOsWavY0TiFnuy5jfVW6Wqm0Qk5Xt7QiSVeHpHLS1yep3AzHIrXM2bdT8UJnrnvWF7z0x2hOz2yb4feM1WbWh+PFUs5KNvnNXFb225aXGUCiku8q11oQShURsiCUACJkQSgBRMiCUAKIkAWhBEgbtV67ZnVOmeQrap0z2Uats8pq5ihn2m1yirJniFqnzTfbhNnsfXblzlpmFpH/S1N+XgucnTHN4OCNaK3SJ0jTpZqubs2qngdV6yw1untIK+Q1q1cVux5CCXD2ylVeuPjd7BLnMgYiTdpH1VoeNEXIUcS1FoQSQIQsCCWACFkQSgARsiCUACJkQSgBRMiCUAKk7X668m5fTplIP3KWJZR4P3LllMaeFU/OmCbWj5zD3T6Z+pGFOGmFfPnKuzllIrcxptbrbr2NcZNqTpO3s16eDOWlKTNj3YRkxLUWhBJAhCwIJYAIWRBKABGyIJQAaYNdmzd15J7TgsUj8hO1jmQ1h+S5BueySZZ91Dpvuc0eMcxTPjnlllOec84/j+XOvajsC/u+18vU1FTCsrRCrl+6dH61EgShYBiGkbJMXGtBKAFEyIJQAoiQBaEEECELQgkgQhaEEkCELAglgAhZEEoAEbIglAAiZEEoAUTIglACiJAFoQQQIQtCCSBCFoQSQIQsCCVA2tsYS4lgMMjIyAgAw8PDBINB3G439fX2UxiXLl2K2+1eyCoKwrwpKSH39/dz7do1AoFATLTZEhV3bW0tTU1NeDyetPd9CsJi5I4W8tTUFFevXmVgYAC/349pmgAsbaijYkkZtdXlKCPMtDVGWa39BAYNHawllJdphEdNlOVmcrycm7emMQNTXL9+nQsXLmAYBh6Ph6amJu655x4qKioWclcFYUbuSCFfuHCBS5cuMTw8DBAT3VhVP3rtNJbrKiiLaaLihXBCDmOYmsFYuJUvvlyJt9cEygGoczfy9DqNzuYw6qqf/v5+Tp8+TX19Pffeey9r164t5q4KQlbcUULu7+/nzJkzBAIBXO5yJpas5Nx0BYN6DT1nx/nzZ0KELYtgOMSkOcW0GcRSVsb8NGOIX37yPi4P1nLNviZwe1rnm+fgm+dcQAPPtMMvbJlkbGiMkydP8qMf/YiOjg5aW+Ul28Li4Y4Q8uDgIGfOnGFoaAijzMXEynH6qq/x7TfrearjO4QmT/GeFbWMWM+A0jB1F9XGMkKhYV7q38rF0XI2NYzywNIehqcuoaFhaAbVrkrq3T/iz369lb85fg/H3winlP2vPtj1YR+jDQFqAk1M+A1OnDhBY2MjHR0drFixYgGOiCAksqiFPDw8zNmzZ+nv70c3dCYbx+gp/1em9UnKrAp+quMyvslLAARCw3z13a9gKRMLC0tZWCgs/o5NK5/gBwP/hpPXn+SDq69zY+oCS41aynU7Wj1t3ebXnw5T7W7j6EnH0wyVYmwCPtd1H7/1sz5u1foIVZrUj7Rx64bOd7/7XTweDx0dHbEouCAsBIu2H7mvr4/jx4/bIl6u0+15mTeq/gVTD6GhMRWeYHCqDw0NDSDyGf2PFl/qm3iFrSu7mQwZXB/fRjpn21Im7c2a/aKi6BThrT6L3zvSijbxIBiKa/Xv8O6abtSKafx+P8ePH+fChQuFPyiCkIFFKeSenh68Xi9GhQvfmrc5VfMSIdc0aBqaFpVr5FOz53VNQ0NH0zR0opMeSakxELgPlEW9exSlzJQybwyt4jMvpi63H26sGJtQ/MEXa6k0qjA0HXeZm2sNffStfpOyChenT5/m9OnTBT4ygpCeReVaB4NBvF4vfr8fo9bgzYZXCGpBdKVhxiRJzAbXuhso05ejo5iwrlOhN6KwmDRv4Z/yoWsWoLO++nG+7a8HFI3lGoa2jHLdjaHZ17GRYDvH+zyA31GbdG9gVLz59iM89MBZRkKDlJutTAUreL3x/9JhvI8LFy4QCATYvn27DDIRisqiEXIgEODEiRMEAgHCy8O8U+fFUhaaAiIW1orM6SiWV9zPi+9+LGIwI4pTivV1IwxNVvLAij9iJHST9TXbOX7pWZRlO9R/37uR33l4kClzDEPXWeKq5z+91gBM84Enm/nnlweSapYo6K8c1+H4QwD8lz0jBEYNdGMHPcte5sHy93D9Ohw/fpzHH3+c2trawh40QYiwKFzraDtzbGyM8ZZhfPU9aBoRd9kWseZwnd2Gm5cHPhwXsYJ6d5CnVh+kpe4w02ENb98nuXX7k3zr/M8xFdTtdJZifBr6Aj9BU9Vyllcso6qsJrLO4o2xCT7wRPT9viqWd+x7bLI/XvpBHW9dqGJ0tBy3XsbbNT9g8p5hxsfHOX78OH6/P3lXBaEgLLiQA4EAXq8XSykm1w4zXHMFnagNjghYs1u7eqT9a1omnStuJgSmHvecZWR6iLHQCE+s+Rs6Wv4jO+45F1lvgWWLFaX42o/KeG1gK77AJt65tRYsC2UplKXoGRvnyceb0gjYMavsmdPvwGtndVY2hCjTynDrZVwo+yFj6wZRKLxeL4FAYAGOqnC3saBCDgaDnDhxgnDYJLwuxHBZH0RscDRM5QxY6dEQlqaja1/nJz0DoBSVRpgp9V17OTrXJi5gaAbnR/+Rn15zMSJiFRezpfjHd+Bwt8HhbgMVW26BqTg/PUVrUyUxt9oh3pSGs1K8enoJbt1Fue6mXHdz2TzLjXuuYJomJ06cyGnMtyDMhQUVctRi3fSUMaSfi1hgIlY4YoFjkxGfj1jle2peA6X40OozTIRvo2NgaAZGRNCGZjChf52myknbKquo5bVigsZSYFqOT4vpUJh1D9amF6/DCzCUwgDe8UGVqwq37qZcL6NCL2dQ8zHaci3mcQhCIVkwIff09OD3+xld2ohWfyYm4KhVjf5pSXOGZtiutqbj0qr4uXVvcyv4T+iajqHZ6w2MyLzOdHiCx9edQEXc51QBp5lMi7eHxnjPI8viFY6KFyJTXOR7dwXR0SnX3RExu6kwyrlR0Ud4+Rh+v5+enp6FOdDCXcGCRK37+vro7e0lWF5P9ZrLjIV0VOTPilplhzutnH9KRbqNFNcm38JSZ9A1A5S9naWUbdGVZqfXFEE1YAs3EvACEgd9RFzn+BgQe+ZWZZiKMo1Q0EpYnjzb5plijDIsDMKWae+HsseVTay8iXltJb29vSxbtoxVq1YV7sBmYGhoCMvKPOZcKC7Lli3L+y2yRRfy8PAwJ0+exFVRzfXlsMQcSi9cRVy8moaKLAfHoCst8qHA1OxPTVOsqFiDprlQSjEavsbN6X7q3UGGJ10O1xhUgpgdEerIsptjQd77yDL+3+uDkeXRvUhsJ//+n9fyJ/vuZcq4hEszcOtLmDBHUEoRDKzjM6/Cnz5dxcmTJ6mtrS3qcM5XX31VoueLDLfbzTPPPJPXW2OL7lqfPXsWgL98ZwmNy87GxJvyF2sbx5cZmhFxoSOfkTZxdFl0OnnlGf729E7+7vRHCN7+NSqMCn76/rfxVE+DaaHMpHayaQe57E8z8mlPZjmOZnJyBNu+EEwHTT77t7VUGJWU6WV85i/X09f7KEvUfbxysprJEHz2+7YzHt3/YmCaJoODg0UrT8iOYDDI9evX85pnUS3y0NAQ/f399IWX88SWKSxlxoZYauBwo53uNDjFo1BxS0z8U4u41Lqy2OTxc2VoFSjF8Ysae7b+FBPhIEQDXQ4Rxi1xqkVGwcWbo9RVu7g9HiJelcTg1x/8gpv16y8zHYYlZXVcH7H4wrcAqgF7u4tDJu/crsYy+xkcHCzKXVOGYdDR0cHZs2clcr6IaG1tzfttsEUV8unTp9F1gz/v1vncv7/KhKmjK4WKutSahaYictbirjQkxY4V9n0RgKY0LE3DQmFiu+C4XmFdw24u3agEBV/5/gORqDVx8VqRHB2DSiynmx1hctqi4746Tpy+Ed8Rx3qAods665RJme7CVEEea3fx+vlQyv5/6fUQf/ykTk9PD08//fT8D2gWtLe3097eXpSyhIWjaK51f38/w8PDXJyq530bdYLWbXvkViQCHbvZweFOG9E+Y/RYFDrZjdYjk6HpNBjvZ2XZ+wCLxqrp1K4mh8sc7TO2TCs2RSPWCWktC9xJF4EY9vevvzJNlVGDoRuU6S52dkbWofjkr+ix+cA0vD1cwfDwMP39/cU69MJdQNEs8tmzZ3GVlfP5kwaf+fhYLLKso9kWWUu8ptjW2LB1o5Fghc3IouiNijoa4eln+PLZFRFre5/d1RQd0eW0wJHvVoJ7nTTvbAcDo1Oh+JfoCsfXsUmL/qttNHku2g0DTQcFv/vzFTR43uITv7qW//5XOgZQ80gvxtU1nDp1Sh7wJ+SNoljk3t5ehoeH+eFoA7eDOjUVU47hl1ELHB/FpWtaxNpqDiusxyxwtK94ecV6bgU+wrEzv8Q3YiKOtoMd/cVRMZsKy1JYscCWlRjgcvQjO6cbgSmi1jdR7Cq2/FNfGYfJdbjCzXzmf0/T0mDw8IO21a1f0c/alRpV5YobWi/++itMTU1x8eLFYhx+4S6gKBbZ5/PZ1vg126warml0UwNlh7iI3G6osNCxrZnSIvMRNEd+GlBfvoHPn9zERCgqVtv9Vc4BHw6LbDkts0qaLGLz8XZ43OoGJqYpLzOYDpokWmt73gAmJ01+7dOjgOI3fmYJP7F5gglzEoBJ8zYf/ZiXQGiM2+EQb7pe52n3Wnp7e6X9KuSFggt5amqKoaEhrpoNhKyIM6xFLbJ9c6Kmog8HcDgIUZc6hgbKHv1V5apNFHHUEkeF6rhBAkvZgyHSidhSif3JUXFa0QrEP5obKrlybTyWxnDW0+FnP7yunMe3/ZiQFbbbAGmwNJOppWOEB8MEAgG53VGYNwV3ra9evQrAty9HTn0FIWvK0e0Uca1j7nX8u4HTpdZiAa7RqUeYCJFBxJZDxJYt4uThmKYF4ci46yQ3mnA8EOZcXldjYA/RVBgJga/Erqjkeyoy0au/BSBBLyEvFFzIAwMD6LpBz6At5A1N8WdpRW+MSBBz7JbFeMQ63mbWqXE9yBd6GhMsboI77RCzlWydTXuK3rKY2BZWqRFrRyT71sg0RkbxxqPZN4ZTu53ScYFzuMpcXLt2La/HW7g7KahrbZomfr+fMb3OdquVoroi8rQPDXQFlqajY2FF3OZ4uzguFlvqFi4e5o++50m0xMkCjraHk9zraBeUcrrVMVebjINDVESgQ4Hp+I4l9SMnfM/SIluaiVpqMjQ0FHsflSDMlYJa5MHBQUzT5I2b5bETfHyKWJ9x9LNMr+BLF7fTP7GFClcDaBupLlsei1br6NwY7+TT329OsIAq+tAApRLc6dinwzrHrbBjin23IkM3I1M4Po+pWFJWxnTISuxHTrLE0Qj2Lz5dnfXxuVLWG7vYCcJ8KKhFHhiwn3/17UsQVfKFa5Y9IDNmkUHTW7gSqOALt92gNkesbBO71kzw8PLXqHQt5Utv1sQtqdOKOi2r5bDGUZGbye3nxPSxC0LCXVEkWNnlNW4G1VR8fYxkS6x4aH3qQ+4z0W1+nzXG/Vy7dm1B7ooSSoeCWuTh4WGMqqUMjiX6m26jKiJm22n+wY0mou5svAmqOHqpgkrXWkaDy1IEqJIFq1Q8sOUQrIpaZzO1Ha2suNVNuXkids+yorGqMq31TRztZX93Vw1lfXzGGcNVY+R9AL1w91FQIU9OTjKWMlZfoVEZc6sx1vHNyxVx45Y02sp3exlKVcfXxdI427/OfuK4a60cYkyIaFv2HVDJj/9JmHcEvEYC4VjdEwScdCdU54OVWGmemT0TE+4xpqamcjuwgpBEQYU8Pj7OeDiN9266Y1Hr0ekKogJRCcEme77cpXj7RlVqV5MisV84aQRXSn+yilvexACZI11K9FqxpLyM8z8eI0XAydYYeGh97gGrMQKYpil3JwnzomBCjlqZm9POImwBBCYrY33Ik1ZZzNA500SF8tLlKr51wZ0aZHKI2HIKOhoISydWFek3dvYnp1jtuIW3LIt1TXX2iK5kAcddiFiZK+sTRrBkxTA3E46XIMyFggl5ctIenjg4Hl2iYuf+0R9UxMZZj4fidwclBprs6UdDWlzETmucIFwS+5VjYk9sMytnkMvpijsEbUX7nyPLhkZMZhKwruyDqKP4YW92fchOblsjgAhZmB8Ft8jXxlLXHT0dwq01oKHRXjdKTZli83KLT2wd4UOr7AuAHU0mUdxpprg1Jq0FjlnidBbaYYVjAnYI/5G1K7gwMD6DgBMvJt3nJ3I/TmX2lW5sLM2BEoQsKVj3U9Qi+25bRMdJ29gz53z1bLhnGFQfB7fdBmUSssa4HHgoSbzExBI31EnWOLrCOVQz2c12Wugkq5zomsfLvTVqQYKAo1c+lbI/KPAPhSjTqjHVaNbHaVq3L3hikYX5UDAhj4/blmZoMn278eCLFod/o5Wa6hGC5ggKhaF5OH/LBQkvPnUIjESBWlHRZRqlZSWvd3xPtuhJ22+9t5nv9QaYUcCKxHoCZrgc9OyFbGp2lNs0c4t2Z8uZM2c4d+5cQfIW5kZjYyNPPPFEXu9FL5hrHX1CYG1ZOK31Gp1U/PKfGfzPb67E0F1oaNwO1sTElHhHEkkWk0TBRgSuIIM1dqRNCmglLrO3b29p4NTlcRJEnCaiHt8nFaujq8wxlDMLDGX/mIV6wEBvb29B8hXmztDQUN5H8xVMyJWVlQDUuVXKOpfDlL12PsTt4RY0TaO27BJ/+r5hasociZVDpE4hJVnn1O4oEtcnWWUrXbeVUiypLOPmhM50MJzYDiZaNvF5h4BRCs+yMoLWOLlQbtkXvHw+GtWJjBhbfFRXV+f94YsFc62jJ+bqpTpvDIHTGseICOR3/1rjL36zlYpqP+VaH3/8vhD7jjekTRv9tBIsc8SCJw3QSIhwR7eNueTx79E8yg2dezyNvHEpELfC0QzTeBUJFVQK/1CQMq0KU2UfuKoI2YNdampqst4mF7Zt28b9998vbfBFRCGeoFowIccscnniGw5cCeq0GZ1U/NJnNQ784irWr7qM4iqoBlLEn9wGjq50zDq7rlIDZqRpDxOzxM0roiJOEm4a0aadBy5frqN5dWYhVww+Tpk+TdmozoTnb6nTl9rLC2SRAWpra+XhBSVOwVzr6mrb0rTVRZ+cB2k0jHPFp78ZwtDs9nK5oSda07SbJVrauItNGkvs+IQEl9pTX019fT1vvusUsbMtnFRO8rzj+3/63HX+/h+W4dJSR3nVW/fz5S+X89W/ruWtbvv41GO/X6qQQhZKn4IO0ayoqKDBYZETzH+CCOyP0QmFwRI0IPTOGPcvrYqnTQg2xbdJtMbxGeUUXCwP4m3jCA+tWc64Wc6lgfEkESdVLpMVTvYOUPyfEyOc+WFjwrGoNVbyF5+rRUdFpshylmIYhtyPLMyLggq5srKS6mjgKtk9jZGoyHPv1qNpGhuWK068fJV1YRcrq91p0kYFpFKzSxa3U+SReU99NQ+saeb05Qlu3J6Or0vnVqezwmkEHJ9VfOEbw5SzjHK9iqFL9/FfP7GMiYm453DlssKtu6kIVos1FuZNQYXc2NgI07epc1uzWuPo56e/EcSwGvn9j14HpTh95iZXTt/iQ21uDu18l0Mf8eEyLB5pMfjNxzVHfmkEnWK2oW35Eh5rb8Y/ovPGpRHs7qUZRJxskWcRcNTaToyb/MbvT/Of/1sNf/E344lpI6xWWwiPhe3jJAjzoKBCbmlpAeDpdY52cgKp/vHohOLZT7n4k6+vjKWanrZ47yofU+EfM2X+mD/deYtfem8P65pe5/DHrvOT97ppqDb47J4Q72tPfdPhspoKtq5v4p6GZVzoD3Pi7DDTITODiBUziji57kkCTgy4wfiElZDOOZWfew+madLU1JTN4RSEjBT0CSErVqzAMAw6m8N881ykqBmssZPXzk1FHjmr+NQvT+Oq6o0lm7QuxNKNh/v50NZ+fu69DUyEb/HzO5ayfvlD9PTC+HiY831j9N8O03/1VmJhyiG8BEucXMdkETsE7Gjrpm06zBSoA+5tqAKCeX+hl3D3UVCLbBgGHo+HGitAmZ58UqeLVjk/4yytncKKDOLINI2FbkY+h7m/3UttZYAzF28zHXKMLFPJIlZJRarEtNmIOMkCJ1jeZBzW2KUrqo0xVq5cKYEuYd4U/HG4LS0tWJbJT7RlKCqNtwrErDEKKiuGUZEBHtlMYSvEzqd+xMa1rnjGDrHqzsJS+qMzWVXnRcB5IUgSsHP7JFfayQOt5VhmWNxqIS8U/E0Tzc3NADyxWvHqlTRudcKX1LboY+0642buL+ueNif5rY9d5sb1Vm7ccvEvp+DslVCa9vAM5acVMamCT7a+GV3q+AXlAx1LgAlxq4W8UHAhV1RU0NjYiD5ymzJ9SeS1MWnc6DTn/pomjY/vPMeUOXNbMxPj4RGqlo2wahn8ygao0j18/qsrOHcpyKwBrTSWOkXEswk6wzKXAfcsDVPurpYRV0JeKMrbGNva2rDCQT76YNKKtIFsFXOr/93PBBgPDWNaVl6m0fAAP/tUKLXsmUQc+UwVcRo3Omk/MlnmX33/CsKhoLzATcgbRRFye3s79fX1vM8zZge9ZnKrnehhwsrK67R0xUBimWkCYQn1SedOZxzZleZ7LK94kOvBphAVFRWsX78+q+MnCLNRFCEDbNy4ETM0zb7Hog8aSO9WO4NcR44uJWxZeZ0CwRtsvr+MGS8gjnrNKmJn4nQCjo3ztpf82vsbCYeCbN68WV5yLuSNorwfGaC1tZX6+nru04epK6/jdrq76pKE8O41qFCrGLOu5LUuH/zwKX5+VzMTo/VcuFjJ998wefdqOKVdrM8QhJvpDqjEKHmc2kqd9uVBli6tl/uEhbxSNCEDdHR08Oqrr/J721384cvOV6ukbSwD8NaFJlrXXMp7XW4F+6G8n3sehHsehJqyRnSrkts365maMrh4xeD8RZO+/mibOksRp20X28s+/mQDSk2xcePG/O6McNdTVCF7PB5aW1vR/X6al9RxdTSDW+swhF9+ycWn9nm4HSrse4RvTUde21L7LkYttK+A9m1w9nubeeV7jovOjK51cq7x6PaGlmpW14dYudIjXU5C3imqkMFuK/v9fj7xeJDffslFyIw/nC/WPk7iG99ZzxNPXiVs5f7c6PmwtMzDK6+FmdW1ThGxSvhwGfA7H6rFDE7S0dFRuAqn4fLly5w9ezb2MERhYXG73axZs4bNmzfnNd+iBbui1NfXs2nTJtT0GH/0pGNFJpdUwQ8vagSubSVomkWdur/XlkXfcBoRJ/RMKf5w90qCk2Ns2rSJ+vrUmzoKyRtvvCEiXkQEg0F6e3vvnIfvzcSGDRtob2+nxhrht7YlVSF5kEVk/otHK1niamPaNIsyuUYf4OUTjvcxzXChSf/dVvPuzjpqXBO0t7ezYcOG+R24OSADThYfhmHk/YJedNc6yubNmxkZGQGu88F7l/Gd3qT3CqfRzT9+u52nng4wPJ37kM1cWKk9xOe/WJWmbzl53rlVsohhx0NLeM9axcqVK/PuSmXLE088wc2bNxekbCE9tbW1eX+YxIIJGWD79u289NJL7Fo9gu/WEs7fsDKktIXxzo/hx195lF/ceQuz5jwjwcKcoN/+ViOQ7vnUqZ5CbD5JxJvXL+Ejm1xUVlawffv2gtQzGwzDKMhTG4XFxYK41lHcbjc7duzA5TL4D1unuG+5860U6ftiJ6fgS19v4Mt/9V4atU1MW2Zep0pXHRyXzVIAAAy1SURBVO/2T2ewxunqliruzeuX8Ks7qnC5DHbs2CG3KQoFZ0GFDLab0dnZiaFZ/M7mMZ5uT+MkZOjW+c5LzZjoTFlm3qay8bUZaprJpU78vuOhJezpdKEsk87OTmmjCkVhQV3rKB6Ph6eeeooTJ07w4VW3aF/ewJ+diNyh5ERFu6hsrl6HR/QljIaG8lKPNRUP8g9fXZIhUp0yQ7Jl/rfb69i6WlFTU83jjz8uIhaKxqIQMtiW+amnnsLr9YLfz4GfXson/zlI2EozNtuBmzqmrLkFv9qqVqMrF4aqwP9mK13eaDlp3OoZcBmKT3y0mWrdfuLH9u3bxZ0WisqiETLE28w9PT309vbyuQ/X8D9eBf/tzIJSuJlWub/JcN3kk/zTV6qI3tiQ8NSQNKWkm42O2Prtp2sJTY+xYcMGHn300ZzrIgjzZVEJOcrmzZtZtmwZJ0+e5A8fh2vBpfzJK+NMhnAM37RnzFAlU1lazijNlR6836oms3CTSONWV5QpfvuZJlpqp7DCkzz66KML0k8sCLBIhQz2WwRra2s5c+YMlt/PZz9Yxo9GavhfJyYJO3qpJkcrmS7L1G2VysaKTZz+xmpGRnITfxSXAXt2LOPhFhPLHKexceWCjNgSBCeLVshgD+fcsWMHg4OD9PT0sCE8zGd/xs3JqxV89XX7Psi3Tq7A2j67KO+vepDgO+t5+YQzXJbGZZ4hq4+/v4mO5iBmeJq62no6OjrweDy575gg5JlFLeQoK1as4Omnn6avr48zZ86wdUWA9z5bwdWJSo6fD1FeuZkfTnSn3fbhqofxv7aB1y7oZHojRdo+uIi7vr7Jxa5ty1hVHyY4PUZFeTUbt2xi7dpM3VSCUHzuCCFHWbVqFa2trVy8eJGLFy+yIjjMxzaCMXE/O8u2cFm7wSnjHG9NnOeB6nbGT3Xw/bczveUiPS5D8YGOpWzbUE6taxLLDAGjlLmq2fjgZtavXy9P9hAWHXeUkMEectje3k57ezuBQAC/38/AwADXr1/nPtzcxyNo5T/JxBj4Vpi8tzbMD/smmQxBKKzouwmrGmBFXQWrV1ZSV26ytLqMhmqoKgMVDGAPz5ymob6RtrY2PB6P9AkLi5o7TshOoi/wbm9vJxgMxkQ9PDyMmg4QfQ3UZk+0L9ppSU0g+kLySVCwpKKWes8qmpqaaG1tlb5g4Y7hjhayE7fbzapVq1KehTU0NIRlWUxOThIIBGLLa2trqaysRNd1eRuicMdTMkLOhIhUuBtY8JsmBEGYPyJkQSgBRMiCUAKIkAWhBBAhC0IJIEIWhBJAhCwIJYAIWRBKABGyIJQAImRBKAFEyIJQAoiQBaEEECELQgkgQhaEEkCELAglgAhZEEoAEbIglAAiZEEoAUTIglACiJAFoQQQIQtCCSBCFoQSIO3jcL/2ta8Vux6CIMwDsciCUALogLzbVxDuUCorK4GIkDdv3kx1dfWCVkgQhNxwu91s3LgRAE0plf07RwVBWJRIG1kQSgARsiCUACJkQSgBRMiCUAKIkAWhBBAhC0IJIEIWhBJAhCwIJYAIWRBKABGyIJQAImRBKAFEyIJQAoiQBaEEECELQgkgQhaEEkCELAglgAhZEEoAEbIglAAiZEEoAUTIglACiJAFoQQQIQtCCSBCFoQSQIQsCCWACFkQSgARsiCUACJkQSgBRMiCUAKIkAWhBBAhC0IJIEIWhBJAhCwIJYAIWRBKABHyvPBz7Pk97NmzhyPdC10X4c6gMOeMK39Z2fiPPc9zXb70K9vaaGvdxrO7drLFM1MeRzg60MJjs6QrFoutPtlwp9R5pvOlra2Tbc/uYudi3oFFQt6FfHUgg4gBfD58Ph+HvF20de5m396dpPxE/mMc7vLiA7y08MLeLfmuYm4stvpkwx1U55nOF5/Pi++Ql6623Rw8kOZcEWLkXcgxOvcnnUB+/P6rHD38Il6fD5+3i+f6Sf2BPC20Aj6g87HmuZfffYQ9h7ww35MgX/XJJ7Pt22Ks82wkny9+P8eOHqbL6wNfF4ePbeXAziJKOV/nT5EonJBT8ODxeNh7YAu7uo/w3CEv+Lp47kiyxdjC3hdeYG/xKjYLi60+2XAn1jkJj4edew/Qwh7sU+Uo3Tv3snh9i4VlQYJdni172d8Z+eJ9kWP+haiFcCew5bHoidLPgJwnGSmiRU5ky979dHoP4cXHyVN+dsbcJj/Hnn+OLh907n+BxOadn+4jh3nR6yPasmpr6+TZfXtjAZ2U4Imvi+f2dMW+tu0+6HDRomW1sfvgAXZyjCOHu/D6ACLLPDPVJ5nk+rXR1vks+/ZuSXLNujmy5xBeMufZfcS2RE6XM/t9m73O/u5jHH3xJF5fPL+2tjZan93H3rTBpeRj1c2xoy/arm9kXzt3P8uuncn7Wljmvx+Jv3lnJ3i92Z4/dn7dx47y4sl+fFnXIf8smJChmZY2wAe+k6fw75ytHRI/OcE+UHbwzMuh5/ojogNaWmlrw16HI22E1pYMpZw6wp4ur2OBj4GrkPVZOXCM5w91kRi68eHzHuK5/k72H8iDWzjXfUsg8Tgm1Nbnw3foObyztQtPHeH5SDDNsTXerkN4B5JjI4UiP/uR/Jv305nDMY5fkCMJaYuWH6lDf4rwC8MCCtlDSzQikwX+Y4ftHy35x/F3c+Twi/Fct+zlwBYSghX7Zg1W+Ojq8gGd7D8Yse5+P/4cjr+3qwtoo3N//Crsj8UCvBw68ti8T/C57Vsi3UeiJ79d111bPJHt/XQfO8yhLl+G2EWU6LFy7qvtiRzy+sB7iCOPzea5ZIufYy9GZNK2ja2OHc3ffiT/5pF8sjnG/gH6M3giUe/J13WYY1sjRqaALOiAkOaWyJXON8DVWdJGuynatm1NinJvYe+BfByoNnYfjLvoRH/QrOlk/8EDCa6UZ8teDu6O7KP3dRZ8zIj/GFFddO636+qoLVt2HnDUd6bYRfK+etiydx/RTfvz0Zj1d3PEYXE7n3VevPO1H/P8zT07OfDCAfamaU54dj6L3bqPeHYFZgEtcm40R/xwX9dRurfuzfsgh87987sYdO5PXyfP1m20dfnw4eX17r1sWcCwq//USdsBatvNrgz1iNc3c9Mi/b7GPSxfTm2SCN5D7PGmX9W2+2CChc/ffhTSUsabjsVgQYUcGwzQ1sJsvZ2enc/SefIQXp+XQ895I0GuXWzxLPIePkef7kITO96tLZll5tnKtrYufL6IZc3hitmczzN3hlGAhd6P3PHTfewUrw+cpL8/vtRXxB99AYXsZyC60zP9IDG2sPfAQR6LtMV8EUHT1sbuZ/fJML5ZcRzvxUjKAKJMLK79mHFIchFZQCFfJW6Qsx195GHL3gO8sNePv/soh1/04vP56Dr0HAOzdg3d7eQWXFy8LKL96D4SE3Fb53727dpC3EHMHFUvBAsW7PIfezEStm9j29ZcranHjuAeOBgbWOJ9fcFDSenxD2AbkDayvl4Vmv4BMsZ//Kc4GfNcF7mXs8D70f16LOLGgb1OERefBRGy33Elo/PZeQQcPPGRP5l+1Cwi4vnA++KRtFHp7qPRvuVW4udTJBBChguQIyo7IznuW+xY+bo4muG6Fwsk0clji9TDKep+ZHGM03uUVxmYR7G5UlQh+/3dHDvyvN23CnafcJbtomPPP8+RY91JYnX0Mya3s5tbsLXi5fVuf7QC+As1zM/n5dCe5zkWLQs/3ceeJ76ruxwDQjxs3RZV8iGOJGxzhOefSx5YksRc923LrlgXkffQ845yI2Ufibf3Euu7yCjGfmRxjKPdp76uoyRWoZsjzx/CWxLBrhm6EyDSpkgZujgTkZFDXURG0PgcUcFO9idfEBxRS++h52Kjb1KH2OWDNjp3t9Lf5aXr0HN0pazezb6kMj07n6Wzyx4V5Kyfnb6T3a39juGPScx53zzs3Lebk8914cOXWm6s+P3FvdMoZ4qwH1kc4/hvGA+8tvkcw3PbSBi2WUjybpFjgzzS0NbWRufu/Rw8+ILdpsg6Vw87Dxxk/27H8LnIqJ62zv0cfCHd8EcPO/ftZ7djeB1tnXNoj2dHy9a9HDi4n86E8iL7m3Zk0Bb2HtzP7k7n8Yqm38vWlplKm8e+eXZy4AXHsXSU3dbWyf6DBzlwJ0QNC74f2RzjpN8wIuK2zt3sP3iAfdvmUXyOaEopVbziBEEoBPLMLkEoAUTIglACiJAFoQQQIQtCCSBCFoQSQIQsCCWACFkQSgARsiCUACJkQSgBRMiCUAKIkAWhBBAhC0IJIEIWhBJAhCwIJYAIWRBKABGyIJQAImRBKAFEyIJQAoiQBaEEECELQgkgQhaEEuD/A5wRC2VETW+QAAAAAElFTkSuQmCC;" vertex="1" parent="1">
          <mxGeometry x="760" y="590" width="160.66" height="160" as="geometry" />
        </mxCell>
      </root>
    </mxGraphModel>
  </diagram>
</mxfile>
